<svg width="97" height="96" viewBox="0 0 97 96" fill="none" xmlns="http://www.w3.org/2000/svg">
<g clip-path="url(#clip0)">
<path d="M38.3379 14H30.0759C28.9679 14 27.9079 14.46 27.1519 15.27L0.337891 44V56L28.3379 26H38.3379C39.4419 26 40.3379 25.104 40.3379 24V16C40.3379 14.896 39.4419 14 38.3379 14Z" fill="#666666"/>
<path d="M66.5999 14H58.3379C57.2339 14 56.3379 14.896 56.3379 16V24C56.3379 25.104 57.2339 26 58.3379 26H68.3379L96.3379 56V44L69.5239 15.27C68.7679 14.46 67.7079 14 66.5999 14Z" fill="#666666"/>
<path d="M96.3379 44H0.337891V56H2.33789C4.54789 56 6.33789 57.79 6.33789 60V70C6.33789 75.522 10.8159 80 16.3379 80H32.3379C37.8599 80 42.3379 75.522 42.3379 70V56.34C42.3379 53.092 44.7699 50.178 48.0159 50.008C51.4759 49.828 54.3379 52.58 54.3379 56V70C54.3379 75.522 58.8159 80 64.3379 80H80.3379C85.8599 80 90.3379 75.522 90.3379 70V60C90.3379 57.79 92.1279 56 94.3379 56H96.3379V44Z" fill="#999999"/>
<path d="M36.3379 50H12.3379C11.2339 50 10.3379 50.896 10.3379 52V70C10.3379 73.314 13.0239 76 16.3379 76H32.3379C35.6519 76 38.3379 73.314 38.3379 70V52C38.3379 50.896 37.4419 50 36.3379 50Z" fill="#D9414F"/>
<path d="M84.3379 50H60.3379C59.2339 50 58.3379 50.896 58.3379 52V70C58.3379 73.314 61.0239 76 64.3379 76H80.3379C83.6519 76 86.3379 73.314 86.3379 70V52C86.3379 50.896 85.4419 50 84.3379 50Z" fill="url(#paint0_linear)"/>
</g>
<defs>
<linearGradient id="paint0_linear" x1="58.3379" y1="63" x2="86.3379" y2="63" gradientUnits="userSpaceOnUse">
<stop stop-color="#3079D6"/>
<stop offset="1" stop-color="#297CD2"/>
</linearGradient>
<clipPath id="clip0">
<rect width="96" height="96" fill="white" transform="translate(0.337891)"/>
</clipPath>
</defs>
</svg>
