<svg width="96" height="96" viewBox="0 0 96 96" fill="none" xmlns="http://www.w3.org/2000/svg">
<path d="M64.7746 64H56.4286L54.0106 56.436H41.9186L39.5246 64H31.2266L43.6026 30H52.6826L64.7746 64ZM52.2566 50.556L48.6046 39.128C48.3366 38.274 48.1466 37.254 48.0346 36.07H47.8446C47.7666 37.066 47.5666 38.054 47.2526 39.034L43.5546 50.558H52.2566V50.556Z" fill="#0078D4"/>
<path d="M76 76H62C60.896 76 60 76.896 60 78V82C60 83.104 60.896 84 62 84H76V76Z" fill="url(#paint0_linear)"/>
<path d="M76 62V84L82.828 77.172C83.578 76.422 84 75.404 84 74.344V62C84 60.896 83.104 60 82 60H78C76.896 60 76 60.896 76 62Z" fill="url(#paint1_linear)"/>
<path d="M20 20H34C35.104 20 36 19.104 36 18V14C36 12.896 35.104 12 34 12H20V20Z" fill="url(#paint2_linear)"/>
<path d="M20 34V12L13.172 18.828C12.422 19.578 12 20.596 12 21.656V34C12 35.104 12.896 36 14 36H18C19.104 36 20 35.104 20 34Z" fill="url(#paint3_linear)"/>
<path d="M20 76H34C35.104 76 36 76.896 36 78V82C36 83.104 35.104 84 34 84H20V76Z" fill="url(#paint4_linear)"/>
<path d="M20 62V84L13.172 77.172C12.422 76.422 12 75.404 12 74.344V62C12 60.896 12.896 60 14 60H18C19.104 60 20 60.896 20 62Z" fill="url(#paint5_linear)"/>
<path d="M76 20H62C60.896 20 60 19.104 60 18V14C60 12.896 60.896 12 62 12H76V20Z" fill="url(#paint6_linear)"/>
<path d="M76 34V12L82.828 18.828C83.578 19.578 84 20.596 84 21.656V34C84 35.104 83.104 36 82 36H78C76.896 36 76 35.104 76 34Z" fill="url(#paint7_linear)"/>
<defs>
<linearGradient id="paint0_linear" x1="60" y1="80" x2="76" y2="80" gradientUnits="userSpaceOnUse">
<stop offset="0.266" stop-color="#199AE0"/>
<stop offset="0.582" stop-color="#1898DE"/>
<stop offset="0.745" stop-color="#1590D6"/>
<stop offset="0.873" stop-color="#1083C9"/>
<stop offset="0.982" stop-color="#0870B7"/>
<stop offset="1" stop-color="#076CB3"/>
</linearGradient>
<linearGradient id="paint1_linear" x1="75.402" y1="59.802" x2="83.81" y2="83.62" gradientUnits="userSpaceOnUse">
<stop stop-color="#32BDEF"/>
<stop offset="1" stop-color="#1EA2E4"/>
</linearGradient>
<linearGradient id="paint2_linear" x1="36" y1="16" x2="20" y2="16" gradientUnits="userSpaceOnUse">
<stop offset="0.266" stop-color="#199AE0"/>
<stop offset="0.582" stop-color="#1898DE"/>
<stop offset="0.745" stop-color="#1590D6"/>
<stop offset="0.873" stop-color="#1083C9"/>
<stop offset="0.982" stop-color="#0870B7"/>
<stop offset="1" stop-color="#076CB3"/>
</linearGradient>
<linearGradient id="paint3_linear" x1="20.598" y1="36.198" x2="12.19" y2="12.38" gradientUnits="userSpaceOnUse">
<stop stop-color="#32BDEF"/>
<stop offset="1" stop-color="#1EA2E4"/>
</linearGradient>
<linearGradient id="paint4_linear" x1="36" y1="80" x2="20" y2="80" gradientUnits="userSpaceOnUse">
<stop offset="0.266" stop-color="#199AE0"/>
<stop offset="0.582" stop-color="#1898DE"/>
<stop offset="0.745" stop-color="#1590D6"/>
<stop offset="0.873" stop-color="#1083C9"/>
<stop offset="0.982" stop-color="#0870B7"/>
<stop offset="1" stop-color="#076CB3"/>
</linearGradient>
<linearGradient id="paint5_linear" x1="20.598" y1="59.802" x2="12.19" y2="83.62" gradientUnits="userSpaceOnUse">
<stop stop-color="#32BDEF"/>
<stop offset="1" stop-color="#1EA2E4"/>
</linearGradient>
<linearGradient id="paint6_linear" x1="60" y1="16" x2="76" y2="16" gradientUnits="userSpaceOnUse">
<stop offset="0.266" stop-color="#199AE0"/>
<stop offset="0.582" stop-color="#1898DE"/>
<stop offset="0.745" stop-color="#1590D6"/>
<stop offset="0.873" stop-color="#1083C9"/>
<stop offset="0.982" stop-color="#0870B7"/>
<stop offset="1" stop-color="#076CB3"/>
</linearGradient>
<linearGradient id="paint7_linear" x1="75.402" y1="36.198" x2="83.81" y2="12.38" gradientUnits="userSpaceOnUse">
<stop stop-color="#32BDEF"/>
<stop offset="1" stop-color="#1EA2E4"/>
</linearGradient>
</defs>
</svg>
