<svg width="97" height="96" viewBox="0 0 97 96" fill="none" xmlns="http://www.w3.org/2000/svg">
<path d="M24.3379 10C15.5019 10 8.33789 17.164 8.33789 26C8.33789 34.836 15.5019 42 24.3379 42C33.1739 42 40.3379 34.836 40.3379 26C40.3379 17.164 33.1739 10 24.3379 10Z" fill="url(#paint0_linear)"/>
<path d="M68.3379 28C67.6759 28 67.0239 28.036 66.3779 28.098C61.8199 21.98 54.5539 18 46.3379 18C34.9119 18 25.2979 25.674 22.3139 36.142C14.4359 37.138 8.33789 43.85 8.33789 52C8.33789 60.836 15.5019 68 24.3379 68C27.9739 68 64.5519 68 68.3379 68C79.3839 68 88.3379 59.046 88.3379 48C88.3379 36.954 79.3839 28 68.3379 28Z" fill="url(#paint1_linear)"/>
<path d="M63.1654 84.828C61.6034 86.39 59.0714 86.39 57.5094 84.828C55.9474 83.266 55.9474 80.734 57.5094 79.172C59.0714 77.61 66.3374 76 66.3374 76C66.3374 76 64.7274 83.266 63.1654 84.828Z" fill="#199BE2"/>
<path d="M29.1654 80.828C27.6034 82.39 25.0714 82.39 23.5094 80.828C21.9474 79.266 21.9474 76.734 23.5094 75.172C25.0714 73.61 32.3374 72 32.3374 72C32.3374 72 30.7274 79.266 29.1654 80.828Z" fill="#199BE2"/>
<path d="M43.1654 92.828C41.6034 94.39 39.0714 94.39 37.5094 92.828C35.9474 91.266 35.9474 88.734 37.5094 87.172C39.0714 85.61 46.3374 84 46.3374 84C46.3374 84 44.7274 91.266 43.1654 92.828Z" fill="#199BE2"/>
<defs>
<linearGradient id="paint0_linear" x1="9.36589" y1="11.028" x2="35.6279" y2="37.29" gradientUnits="userSpaceOnUse">
<stop stop-color="#FED100"/>
<stop offset="1" stop-color="#E36001"/>
</linearGradient>
<linearGradient id="paint1_linear" x1="42.9639" y1="18.158" x2="51.5739" y2="68.896" gradientUnits="userSpaceOnUse">
<stop stop-color="#FCFCFC"/>
<stop offset="1" stop-color="#C3C9CD"/>
</linearGradient>
</defs>
</svg>
