<svg width="48" height="48" viewBox="0 0 48 48" fill="none" xmlns="http://www.w3.org/2000/svg">
<path d="M14.7513 30.257L14.6393 22.089L14.5273 13.922L15.0273 13.915L15.5273 13.908L15.6393 22.076L15.7513 30.243L15.2513 30.25L14.7513 30.257Z" fill="#6B7277"/>
<path d="M14.5717 13.91C14.5777 13.909 15.0377 13.909 15.0377 13.915L15.4927 13.948L15.6037 22.076L15.7137 30.104C15.7137 30.11 15.7107 30.255 15.7047 30.255C15.6987 30.255 15.2387 30.256 15.2387 30.25L14.7837 30.217L14.6727 22.089L14.5627 14.061C14.5617 14.055 14.5647 13.91 14.5717 13.91Z" fill="#71787D"/>
<path d="M14.6187 13.898C14.6307 13.897 15.0507 13.902 15.0507 13.915L15.4607 13.989L15.5717 22.077L15.6817 30.119C15.6817 30.132 15.6737 30.267 15.6607 30.268C15.6487 30.268 15.2287 30.264 15.2287 30.251L14.8187 30.177L14.7077 22.089L14.5977 14.047C14.5977 14.034 14.6057 13.898 14.6187 13.898Z" fill="#767D82"/>
<path d="M14.6619 13.886C14.6799 13.884 15.0599 13.896 15.0599 13.915L15.4249 14.029L15.5349 22.078L15.6449 30.134C15.6449 30.153 15.6319 30.28 15.6129 30.28C15.6129 30.28 15.6129 30.28 15.6119 30.28C15.5929 30.28 15.2149 30.27 15.2139 30.251L14.8489 30.137L14.7389 22.088L14.6289 14.032C14.6299 14.013 14.6439 13.886 14.6619 13.886Z" fill="#7C8388"/>
<path d="M14.7081 13.874C14.7321 13.872 15.0721 13.889 15.0721 13.914L15.3921 14.068L15.5021 22.077L15.6121 30.147C15.6121 30.172 15.5931 30.29 15.5691 30.291C15.5691 30.291 15.5691 30.291 15.5681 30.291C15.5431 30.291 15.2051 30.275 15.2041 30.251L14.8841 30.097L14.7741 22.088L14.6641 14.018C14.6651 13.992 14.6841 13.874 14.7081 13.874Z" fill="#82888E"/>
<path d="M14.7542 13.862C14.7842 13.859 15.0842 13.883 15.0842 13.914L15.3592 14.108L15.4682 22.077L15.5792 30.161C15.5792 30.193 15.5552 30.302 15.5242 30.302H15.5232C15.4922 30.302 15.1942 30.281 15.1942 30.25L14.9192 30.056L14.8102 22.087L14.6992 14.003C14.6992 13.972 14.7232 13.862 14.7542 13.862Z" fill="#878E93"/>
<path d="M14.7995 13.85C14.8355 13.847 15.0955 13.876 15.0965 13.914L15.3275 14.149L15.4365 22.079L15.5475 30.177C15.5485 30.215 15.5185 30.315 15.4815 30.316C15.4805 30.316 15.4805 30.316 15.4805 30.316C15.4435 30.316 15.1855 30.289 15.1855 30.252L14.9545 30.017L14.8455 22.087L14.7345 13.989C14.7325 13.951 14.7625 13.85 14.7995 13.85Z" fill="#8D9399"/>
<path d="M14.8426 13.838C14.8846 13.834 15.1046 13.87 15.1056 13.914L15.2916 14.189L15.3996 22.079L15.5106 30.191C15.5116 30.235 15.4766 30.327 15.4326 30.328C15.4316 30.328 15.4316 30.328 15.4316 30.328C15.3876 30.328 15.1706 30.296 15.1706 30.252L14.9846 29.977L14.8766 22.087L14.7656 13.975C14.7646 13.93 14.7996 13.839 14.8426 13.838Z" fill="#92999E"/>
<path d="M14.8898 13.826C14.9378 13.822 15.1178 13.863 15.1188 13.914L15.2598 14.229L15.3668 22.08L15.4778 30.206C15.4788 30.256 15.4388 30.339 15.3888 30.34C15.3878 30.34 15.3878 30.34 15.3878 30.34C15.3378 30.34 15.1608 30.302 15.1608 30.252L15.0198 29.937L14.9128 22.086L14.8008 13.96C14.7998 13.91 14.8398 13.827 14.8898 13.826Z" fill="#989EA4"/>
<path d="M14.932 13.814C14.986 13.809 15.126 13.857 15.127 13.913L15.223 14.268L15.33 22.079L15.441 30.219C15.442 30.276 15.397 30.35 15.341 30.351C15.34 30.351 15.34 30.351 15.339 30.351C15.283 30.351 15.147 30.307 15.146 30.252L15.05 29.897L14.943 22.086L14.832 13.946C14.831 13.889 14.876 13.815 14.932 13.814Z" fill="#9EA4AA"/>
<path d="M14.9792 13.802C15.0382 13.797 15.1392 13.85 15.1402 13.913L15.1912 14.309L15.2972 22.08L15.4092 30.234C15.4102 30.297 15.3592 30.362 15.2972 30.363C15.2962 30.363 15.2962 30.363 15.2952 30.363C15.2332 30.363 15.1372 30.314 15.1362 30.252L15.0852 29.856L14.9792 22.085L14.8672 13.931C14.8672 13.868 14.9172 13.803 14.9792 13.802Z" fill="#A3A9AF"/>
<path d="M15.2514 30.375C15.1834 30.375 15.1274 30.32 15.1264 30.252L15.0144 22.085L14.9024 13.918C14.9014 13.849 14.9574 13.792 15.0254 13.791C15.0904 13.785 15.1514 13.845 15.1524 13.914L15.2644 22.081L15.3764 30.248C15.3774 30.317 15.3214 30.374 15.2534 30.375C15.2524 30.375 15.2524 30.375 15.2514 30.375Z" fill="#A9AFB5"/>
<path d="M19.75 13.197H18.75V30.25H19.75V13.197Z" fill="#6B7277"/>
<path d="M18.7852 13.197C18.7852 13.191 19.2452 13.186 19.2512 13.186C19.2572 13.186 19.7172 13.191 19.7172 13.197V30.25C19.7172 30.256 19.2572 30.261 19.2512 30.261C19.2452 30.261 18.7852 30.256 18.7852 30.25V13.197Z" fill="#71787D"/>
<path d="M18.8164 13.197C18.8164 13.184 19.2354 13.174 19.2484 13.174C19.2614 13.174 19.6804 13.184 19.6804 13.197V30.25C19.6804 30.263 19.2614 30.273 19.2484 30.273C19.2354 30.273 18.8164 30.263 18.8164 30.25V13.197Z" fill="#767D82"/>
<path d="M18.8516 13.197C18.8516 13.178 19.2306 13.163 19.2496 13.163C19.2686 13.163 19.6476 13.178 19.6476 13.197V30.25C19.6476 30.269 19.2686 30.284 19.2496 30.284C19.2306 30.284 18.8516 30.269 18.8516 30.25V13.197Z" fill="#7C8388"/>
<path d="M18.8867 13.197C18.8867 13.172 19.2247 13.152 19.2507 13.152C19.2767 13.152 19.6147 13.172 19.6147 13.197V30.25C19.6147 30.275 19.2767 30.295 19.2507 30.295C19.2247 30.295 18.8867 30.275 18.8867 30.25V13.197Z" fill="#82888E"/>
<path d="M18.9219 13.197C18.9219 13.165 19.2199 13.14 19.2519 13.14C19.2839 13.14 19.5819 13.165 19.5819 13.197V30.25C19.5819 30.282 19.2839 30.307 19.2519 30.307C19.2199 30.307 18.9219 30.282 18.9219 30.25V13.197Z" fill="#878E93"/>
<path d="M18.9531 13.197C18.9531 13.159 19.2111 13.129 19.2481 13.129C19.2851 13.129 19.5431 13.159 19.5431 13.197V30.25C19.5431 30.288 19.2851 30.318 19.2481 30.318C19.2111 30.318 18.9531 30.288 18.9531 30.25V13.197Z" fill="#8D9399"/>
<path d="M18.9883 13.197C18.9883 13.153 19.2053 13.117 19.2493 13.117C19.2933 13.117 19.5103 13.152 19.5103 13.197V30.25C19.5103 30.294 19.2933 30.33 19.2493 30.33C19.2053 30.33 18.9883 30.295 18.9883 30.25V13.197Z" fill="#92999E"/>
<path d="M19.0234 13.197C19.0234 13.147 19.2004 13.106 19.2504 13.106C19.3004 13.106 19.4774 13.146 19.4774 13.197V30.25C19.4774 30.3 19.3004 30.341 19.2504 30.341C19.2004 30.341 19.0234 30.301 19.0234 30.25V13.197Z" fill="#989EA4"/>
<path d="M19.0586 13.197C19.0586 13.14 19.1946 13.095 19.2516 13.095C19.3086 13.095 19.4446 13.141 19.4446 13.197V30.25C19.4446 30.307 19.3086 30.352 19.2516 30.352C19.1946 30.352 19.0586 30.306 19.0586 30.25V13.197Z" fill="#9EA4AA"/>
<path d="M19.0898 13.197C19.0898 13.134 19.1858 13.083 19.2488 13.083C19.3118 13.083 19.4078 13.134 19.4078 13.197V30.25C19.4078 30.313 19.3118 30.364 19.2488 30.364C19.1858 30.364 19.0898 30.313 19.0898 30.25V13.197Z" fill="#A3A9AF"/>
<path d="M19.25 30.375C19.181 30.375 19.125 30.319 19.125 30.25V13.197C19.125 13.128 19.181 13.072 19.25 13.072C19.319 13.072 19.375 13.128 19.375 13.197V30.25C19.375 30.319 19.319 30.375 19.25 30.375Z" fill="#A9AFB5"/>
<path d="M10.7496 30.266L10.5076 22.361L10.2656 14.457L10.7656 14.441L11.2656 14.426L11.5076 22.33L11.7496 30.234L11.2496 30.25L10.7496 30.266Z" fill="#6B7277"/>
<path d="M10.3117 14.444C10.3117 14.444 10.3127 14.444 10.3117 14.444C10.3187 14.444 10.7777 14.435 10.7777 14.441L11.2337 14.467L11.4747 22.332L11.7127 30.095C11.7127 30.101 11.7127 30.248 11.7057 30.248H11.7047C11.6987 30.248 11.2397 30.257 11.2397 30.251L10.7837 30.225L10.5427 22.36L10.3047 14.597C10.3047 14.591 10.3047 14.444 10.3117 14.444Z" fill="#71787D"/>
<path d="M10.358 14.431H10.359C10.371 14.431 10.79 14.428 10.79 14.44L11.202 14.507L11.442 22.332L11.68 30.109C11.68 30.122 11.674 30.259 11.662 30.259H11.661C11.649 30.259 11.23 30.262 11.23 30.25L10.818 30.183L10.578 22.358L10.34 14.581C10.339 14.569 10.345 14.432 10.358 14.431Z" fill="#767D82"/>
<path d="M10.4011 14.419H10.4021C10.4201 14.419 10.7991 14.422 10.7991 14.441L11.1661 14.549L11.4051 22.334L11.6441 30.125C11.6451 30.144 11.6331 30.272 11.6141 30.273H11.6131C11.5951 30.273 11.2161 30.27 11.2161 30.251L10.8491 30.143L10.6101 22.358L10.3711 14.567C10.3711 14.548 10.3821 14.419 10.4011 14.419Z" fill="#7C8388"/>
<path d="M10.4473 14.406C10.4473 14.406 10.4483 14.406 10.4493 14.406C10.4743 14.406 10.8123 14.416 10.8123 14.44L11.1353 14.589L11.3723 22.334L11.6113 30.14C11.6123 30.165 11.5953 30.285 11.5703 30.286C11.5703 30.286 11.5693 30.286 11.5683 30.286C11.5433 30.286 11.2053 30.276 11.2053 30.252L10.8823 30.103L10.6453 22.358L10.4063 14.552C10.4053 14.526 10.4223 14.407 10.4473 14.406Z" fill="#82888E"/>
<path d="M10.4895 14.393H10.4915C10.5225 14.393 10.8195 14.409 10.8205 14.44L11.0995 14.63L11.3355 22.335L11.5755 30.155C11.5765 30.187 11.5545 30.297 11.5235 30.298H11.5215C11.4905 30.298 11.1935 30.282 11.1925 30.251L10.9135 30.061L10.6775 22.356L10.4375 14.536C10.4365 14.505 10.4585 14.394 10.4895 14.393Z" fill="#878E93"/>
<path d="M10.5367 14.38C10.5377 14.38 10.5387 14.38 10.5387 14.38C10.5757 14.38 10.8327 14.402 10.8337 14.439L11.0687 14.671L11.3037 22.337L11.5437 30.171C11.5447 30.209 11.5177 30.311 11.4797 30.312C11.4787 30.312 11.4777 30.312 11.4777 30.312C11.4407 30.312 11.1837 30.29 11.1827 30.253L10.9477 30.021L10.7127 22.355L10.4727 14.521C10.4717 14.483 10.4987 14.381 10.5367 14.38Z" fill="#8D9399"/>
<path d="M10.5828 14.368C10.5838 14.368 10.5848 14.368 10.5858 14.368C10.6288 14.368 10.8458 14.397 10.8468 14.439L11.0368 14.712L11.2708 22.338L11.5108 30.186C11.5118 30.23 11.4798 30.323 11.4358 30.324C11.4348 30.324 11.4338 30.324 11.4328 30.324C11.3898 30.324 11.1728 30.295 11.1718 30.253L10.9818 29.98L10.7478 22.354L10.5078 14.506C10.5068 14.462 10.5388 14.369 10.5828 14.368Z" fill="#92999E"/>
<path d="M10.6261 14.355C10.6271 14.355 10.6281 14.355 10.6291 14.355C10.6781 14.355 10.8551 14.39 10.8561 14.439L11.0021 14.753L11.2341 22.339L11.4751 30.201C11.4761 30.251 11.4391 30.336 11.3881 30.337C11.3871 30.337 11.3861 30.337 11.3851 30.337C11.3361 30.337 11.1591 30.302 11.1581 30.253L11.0121 29.939L10.7801 22.353L10.5391 14.491C10.5381 14.44 10.5761 14.356 10.6261 14.355Z" fill="#989EA4"/>
<path d="M10.6723 14.342C10.6733 14.342 10.6753 14.342 10.6753 14.342C10.7303 14.342 10.8663 14.383 10.8683 14.438L10.9703 14.793L11.2013 22.339L11.4423 30.215C11.4443 30.272 11.4013 30.347 11.3443 30.349C11.3433 30.349 11.3413 30.349 11.3413 30.349C11.2863 30.349 11.1503 30.308 11.1483 30.253L11.0463 29.898L10.8153 22.352L10.5743 14.476C10.5723 14.419 10.6153 14.344 10.6723 14.342Z" fill="#9EA4AA"/>
<path d="M10.7155 14.329C10.7165 14.329 10.7185 14.329 10.7195 14.329C10.7805 14.329 10.8765 14.376 10.8785 14.438L10.9365 14.834L11.1665 22.34L11.4085 30.23C11.4105 30.293 11.3615 30.36 11.2985 30.361C11.2975 30.361 11.2955 30.361 11.2945 30.361C11.2335 30.361 11.1375 30.314 11.1355 30.252L11.0775 29.856L10.8475 22.35L10.6055 14.46C10.6035 14.397 10.6525 14.331 10.7155 14.329Z" fill="#A3A9AF"/>
<path d="M11.2497 30.375C11.1827 30.375 11.1267 30.321 11.1247 30.254L10.8827 22.35L10.6407 14.446C10.6387 14.377 10.6927 14.319 10.7617 14.317C10.7627 14.317 10.7647 14.317 10.7657 14.317C10.8327 14.317 10.8887 14.371 10.8907 14.438L11.1327 22.342L11.3747 30.246C11.3767 30.315 11.3227 30.373 11.2537 30.375C11.2527 30.375 11.2507 30.375 11.2497 30.375Z" fill="#A9AFB5"/>
<path d="M7.09725 30.22L6.31425 22.586L5.53125 14.952L6.52725 14.886L7.31025 22.52L8.09325 30.154L7.09725 30.22Z" fill="#6B7277"/>
<path d="M5.57612 14.938C5.58312 14.939 5.77112 14.93 5.77212 14.936L6.50012 14.954L7.23512 22.118L7.28012 22.558L8.04412 30.006C8.04512 30.012 8.05512 30.167 8.04912 30.167H8.04812C8.04212 30.167 7.86012 30.174 7.85912 30.168L7.12412 30.15L6.39012 22.99L6.34412 22.546L5.58112 15.1C5.58012 15.093 5.57012 14.939 5.57612 14.938Z" fill="#71787D"/>
<path d="M5.61801 14.924C5.63101 14.926 5.80701 14.922 5.80801 14.934L6.47102 15.022L7.20301 22.161L7.24802 22.596L8.01001 30.023C8.01101 30.036 8.01601 30.181 8.00301 30.182C8.00201 30.182 8.00201 30.182 8.00101 30.182C7.98901 30.182 7.81902 30.183 7.81802 30.172L7.14902 30.083L6.41702 22.949L6.37202 22.509L5.61002 15.083C5.61002 15.07 5.60601 14.925 5.61801 14.924Z" fill="#767D82"/>
<path d="M5.66379 14.91C5.68379 14.912 5.84579 14.913 5.84779 14.932L6.44579 15.09L7.17579 22.204L7.21979 22.635L7.97979 30.041C7.98179 30.06 7.97979 30.195 7.96179 30.197C7.96079 30.197 7.95979 30.197 7.95879 30.197C7.94079 30.197 7.78379 30.193 7.78179 30.175L7.17879 30.015L6.44979 22.906L6.40479 22.47L5.64479 15.065C5.64379 15.047 5.64479 14.911 5.66379 14.91Z" fill="#7C8388"/>
<path d="M5.70543 14.895C5.73143 14.898 5.88143 14.904 5.88443 14.929L6.41643 15.157L7.14343 22.246L7.18743 22.673L7.94543 30.058C7.94743 30.083 7.94043 30.209 7.91543 30.211C7.91443 30.211 7.91343 30.211 7.91243 30.211C7.88843 30.211 7.74443 30.201 7.74143 30.177L7.20443 29.946L6.47743 22.862L6.43343 22.431L5.67643 15.048C5.67343 15.023 5.68043 14.897 5.70543 14.895Z" fill="#82888E"/>
<path d="M5.75236 14.881C5.78536 14.885 5.92136 14.895 5.92536 14.926L6.39236 15.225L7.11736 22.289L7.16036 22.711L7.91536 30.075C7.91836 30.106 7.90436 30.223 7.87336 30.225C7.87236 30.225 7.87036 30.225 7.86936 30.225C7.83936 30.225 7.70736 30.209 7.70436 30.179L7.23336 29.877L6.51036 22.82L6.46636 22.393L5.71136 15.031C5.70836 15 5.72136 14.883 5.75236 14.881Z" fill="#878E93"/>
<path d="M5.7955 14.867C5.8345 14.872 5.9585 14.887 5.9625 14.924L6.3635 15.293L7.0855 22.332L7.1285 22.75L7.8815 30.093C7.8845 30.131 7.8655 30.238 7.8285 30.24C7.8265 30.24 7.8255 30.24 7.8235 30.24C7.7875 30.24 7.6685 30.218 7.6645 30.183L7.2605 29.81L6.5385 22.777L6.4955 22.355L5.7425 15.014C5.7395 14.976 5.7585 14.869 5.7955 14.867Z" fill="#8D9399"/>
<path d="M5.83884 14.852C5.88484 14.858 5.99484 14.877 5.99984 14.921L6.33584 15.36L7.05484 22.374L7.09784 22.787L7.84884 30.109C7.85284 30.153 7.82784 30.25 7.78384 30.253C7.78184 30.253 7.77984 30.253 7.77784 30.253C7.73584 30.253 7.62984 30.226 7.62484 30.184L7.28584 29.74L6.56784 22.734L6.52484 22.316L5.77384 14.997C5.76984 14.953 5.79584 14.855 5.83884 14.852Z" fill="#92999E"/>
<path d="M5.88511 14.838C5.93711 14.844 6.03511 14.869 6.04011 14.919L6.31011 15.429L7.02711 22.418L7.06911 22.827L7.81811 30.128C7.82311 30.178 7.79111 30.266 7.74111 30.27C7.73911 30.27 7.73711 30.27 7.73511 30.27C7.68711 30.27 7.59311 30.237 7.58811 30.189L7.31511 29.674L6.60011 22.691L6.55811 22.278L5.80911 14.98C5.80411 14.929 5.83611 14.841 5.88511 14.838Z" fill="#989EA4"/>
<path d="M5.92828 14.824C5.98728 14.831 6.07229 14.861 6.07729 14.916L6.28228 15.496L6.99629 22.459L7.03829 22.864L7.78528 30.144C7.79028 30.2 7.75328 30.279 7.69728 30.283C7.69528 30.283 7.69228 30.283 7.69028 30.283C7.63628 30.283 7.55529 30.244 7.54929 30.191L7.34228 29.605L6.62829 22.648L6.58628 22.239L5.84029 14.963C5.83529 14.906 5.87328 14.828 5.92828 14.824Z" fill="#9EA4AA"/>
<path d="M5.97065 14.809C6.03565 14.817 6.10765 14.851 6.11465 14.913L6.25365 15.563L6.96565 22.501L7.00665 22.901L7.75165 30.16C7.75765 30.223 7.71365 30.292 7.65165 30.296C7.64865 30.296 7.64665 30.296 7.64365 30.296C7.58465 30.296 7.51465 30.251 7.50865 30.192L7.36765 29.536L6.65665 22.605L6.61565 22.2L5.87165 14.945C5.86565 14.883 5.90865 14.814 5.97065 14.809Z" fill="#A3A9AF"/>
<path d="M7.59784 30.311C7.53284 30.311 7.47584 30.26 7.46884 30.195L6.68584 22.561L5.90284 14.927C5.89684 14.859 5.94584 14.8 6.01384 14.795C6.08584 14.804 6.14484 14.843 6.15184 14.911L6.93484 22.545L7.71784 30.179C7.72384 30.248 7.67484 30.307 7.60584 30.312C7.60384 30.311 7.60084 30.311 7.59784 30.311Z" fill="#A9AFB5"/>
<path d="M23.75 30.26L23.25 30.25L22.75 30.24L22.923 21.45L23.096 12.66L23.596 12.67L24.096 12.68L23.923 21.47L23.75 30.26Z" fill="#6B7277"/>
<path d="M23.5823 12.67C23.5823 12.664 24.0413 12.668 24.0483 12.668C24.0483 12.668 24.0483 12.668 24.0493 12.668C24.0553 12.668 24.0583 12.809 24.0573 12.815L23.8873 21.469L23.7153 30.22L23.2603 30.25C23.2603 30.256 22.8013 30.252 22.7943 30.252C22.7943 30.252 22.7943 30.252 22.7933 30.252C22.7873 30.252 22.7843 30.111 22.7853 30.105L22.9553 21.451L23.1273 12.7L23.5823 12.67Z" fill="#71787D"/>
<path d="M23.5723 12.669C23.5723 12.657 23.9913 12.655 24.0043 12.655H24.0053C24.0173 12.655 24.0253 12.788 24.0253 12.8L23.8553 21.468L23.6843 30.18L23.2733 30.25C23.2733 30.262 22.8543 30.264 22.8413 30.264H22.8403C22.8283 30.264 22.8203 30.131 22.8203 30.119L22.9903 21.451L23.1613 12.739L23.5723 12.669Z" fill="#767D82"/>
<path d="M23.5625 12.669C23.5625 12.651 23.9415 12.643 23.9595 12.643H23.9605C23.9795 12.643 23.9915 12.768 23.9915 12.787L23.8205 21.468L23.6505 30.14L23.2845 30.25C23.2845 30.268 22.9055 30.276 22.8875 30.276H22.8865C22.8675 30.276 22.8555 30.151 22.8555 30.132L23.0265 21.451L23.1975 12.778L23.5625 12.669Z" fill="#7C8388"/>
<path d="M23.5487 12.669C23.5487 12.644 23.8877 12.631 23.9117 12.631H23.9127C23.9377 12.631 23.9557 12.747 23.9557 12.773L23.7847 21.468L23.6147 30.101L23.2937 30.251C23.2937 30.276 22.9547 30.289 22.9307 30.289H22.9297C22.9047 30.289 22.8867 30.173 22.8867 30.147L23.0577 21.452L23.2277 12.819L23.5487 12.669Z" fill="#82888E"/>
<path d="M23.5389 12.669C23.5389 12.638 23.8369 12.619 23.8679 12.619C23.8679 12.619 23.8689 12.619 23.8699 12.619C23.9009 12.619 23.9239 12.727 23.9239 12.759L23.7529 21.468L23.5839 30.062L23.3069 30.252C23.3069 30.283 23.0089 30.302 22.9779 30.302C22.9779 30.302 22.9769 30.302 22.9759 30.302C22.9449 30.302 22.9219 30.194 22.9219 30.162L23.0929 21.453L23.2619 12.859L23.5389 12.669Z" fill="#878E93"/>
<path d="M23.5291 12.668C23.5301 12.631 23.7871 12.606 23.8241 12.606C23.8251 12.606 23.8251 12.606 23.8261 12.606C23.8631 12.607 23.8921 12.706 23.8911 12.744L23.7191 21.466L23.5511 30.021L23.3191 30.252C23.3181 30.289 23.0611 30.314 23.0241 30.314C23.0231 30.314 23.0231 30.314 23.0221 30.314C22.9851 30.313 22.9561 30.214 22.9571 30.176L23.1291 21.454L23.2971 12.899L23.5291 12.668Z" fill="#8D9399"/>
<path d="M23.5143 12.668C23.5153 12.625 23.7323 12.594 23.7753 12.594C23.7763 12.594 23.7763 12.594 23.7773 12.594C23.8213 12.595 23.8543 12.686 23.8543 12.73L23.6823 21.466L23.5153 29.982L23.3283 30.253C23.3273 30.296 23.1103 30.327 23.0673 30.327C23.0663 30.327 23.0663 30.327 23.0653 30.327C23.0213 30.326 22.9883 30.235 22.9883 30.191L23.1603 21.455L23.3273 12.939L23.5143 12.668Z" fill="#92999E"/>
<path d="M23.5055 12.668C23.5065 12.619 23.6825 12.582 23.7325 12.582C23.7335 12.582 23.7345 12.582 23.7345 12.582C23.7845 12.583 23.8235 12.665 23.8225 12.716L23.6505 21.465L23.4835 29.942L23.3405 30.253C23.3395 30.302 23.1635 30.339 23.1135 30.339C23.1125 30.339 23.1115 30.339 23.1115 30.339C23.0615 30.338 23.0225 30.256 23.0235 30.205L23.1955 21.456L23.3625 12.979L23.5055 12.668Z" fill="#989EA4"/>
<path d="M23.4946 12.668C23.4956 12.613 23.6316 12.57 23.6876 12.57C23.6886 12.57 23.6896 12.57 23.6896 12.57C23.7456 12.571 23.7896 12.645 23.7886 12.702L23.6166 21.465L23.4506 29.903L23.3526 30.254C23.3516 30.309 23.2156 30.352 23.1596 30.352C23.1586 30.352 23.1576 30.352 23.1576 30.352C23.1016 30.351 23.0576 30.277 23.0586 30.22L23.2306 21.457L23.3966 13.019L23.4946 12.668Z" fill="#9EA4AA"/>
<path d="M23.4809 12.667C23.4819 12.606 23.5779 12.557 23.6399 12.557C23.6409 12.557 23.6419 12.557 23.6429 12.557C23.7049 12.558 23.7549 12.624 23.7539 12.687L23.5809 21.463L23.4159 29.861L23.3629 30.252C23.3619 30.313 23.2659 30.362 23.2039 30.362C23.2029 30.362 23.2019 30.362 23.2009 30.362C23.1389 30.361 23.0889 30.295 23.0899 30.232L23.2629 21.456L23.4279 13.058L23.4809 12.667Z" fill="#A3A9AF"/>
<path d="M23.25 30.375C23.249 30.375 23.248 30.375 23.247 30.375C23.179 30.374 23.124 30.316 23.125 30.247L23.298 21.457L23.471 12.667C23.472 12.6 23.528 12.545 23.596 12.545C23.597 12.545 23.598 12.545 23.599 12.545C23.667 12.546 23.722 12.604 23.721 12.673L23.548 21.463L23.375 30.253C23.374 30.32 23.318 30.375 23.25 30.375Z" fill="#A9AFB5"/>
<path d="M27.748 30.288L26.75 30.212L27.436 21.207L28.122 12.201L29.12 12.277L28.434 21.283L27.748 30.288Z" fill="#6B7277"/>
<path d="M29.0766 12.263C29.0826 12.264 29.0766 12.414 29.0756 12.42L28.4036 21.243L28.3726 21.654L27.7206 30.218L26.9976 30.231C26.9976 30.237 26.8036 30.227 26.7976 30.227H26.7956C26.7896 30.226 26.7956 30.076 26.7966 30.07L27.4686 21.247L27.4996 20.836L28.1516 12.272L28.8746 12.259C28.8746 12.253 29.0686 12.263 29.0746 12.263C29.0746 12.262 29.0756 12.263 29.0766 12.263Z" fill="#71787D"/>
<path d="M29.0305 12.248C29.0425 12.249 29.0425 12.39 29.0415 12.403L28.3715 21.203L28.3405 21.615L27.6905 30.149L27.0345 30.235C27.0335 30.247 26.8535 30.243 26.8425 30.243C26.8415 30.243 26.8405 30.243 26.8395 30.243C26.8275 30.242 26.8275 30.101 26.8285 30.088L27.4985 21.288L27.5295 20.876L28.1795 12.342L28.8355 12.256C28.8365 12.244 29.0165 12.248 29.0275 12.248C29.0285 12.248 29.0295 12.248 29.0305 12.248Z" fill="#767D82"/>
<path d="M28.9855 12.233C29.0045 12.235 29.0095 12.367 29.0085 12.386L28.3395 21.163L28.3085 21.575L27.6605 30.078L27.0715 30.237C27.0705 30.255 26.9045 30.257 26.8865 30.257C26.8855 30.257 26.8835 30.257 26.8825 30.257C26.8635 30.255 26.8585 30.123 26.8595 30.104L27.5285 21.327L27.5595 20.915L28.2075 12.412L28.7965 12.253C28.7975 12.235 28.9635 12.233 28.9815 12.233C28.9825 12.233 28.9845 12.233 28.9855 12.233Z" fill="#7C8388"/>
<path d="M28.9418 12.218C28.9668 12.22 28.9778 12.343 28.9758 12.368L28.3088 21.121L28.2778 21.533L27.6328 30.006L27.1098 30.239C27.1078 30.263 26.9558 30.271 26.9328 30.271C26.9318 30.271 26.9298 30.271 26.9288 30.271C26.9038 30.269 26.8928 30.146 26.8948 30.121L27.5618 21.368L27.5928 20.956L28.2378 12.483L28.7608 12.25C28.7628 12.226 28.9148 12.218 28.9378 12.218C28.9388 12.218 28.9408 12.218 28.9418 12.218Z" fill="#82888E"/>
<path d="M28.8998 12.203C28.9308 12.206 28.9478 12.32 28.9458 12.351L28.2808 21.081L28.2498 21.494L27.6068 29.937L27.1508 30.243C27.1488 30.273 27.0098 30.287 26.9808 30.287C26.9798 30.287 26.9778 30.287 26.9758 30.287C26.9448 30.284 26.9278 30.17 26.9298 30.139L27.5948 21.409L27.6258 20.996L28.2688 12.553L28.7248 12.247C28.7268 12.217 28.8658 12.203 28.8948 12.203C28.8958 12.203 28.8978 12.203 28.8998 12.203Z" fill="#878E93"/>
<path d="M28.8542 12.188C28.8912 12.191 28.9142 12.296 28.9112 12.334L28.2482 21.041L28.2172 21.454L27.5762 29.866L27.1862 30.245C27.1832 30.281 27.0592 30.301 27.0242 30.301C27.0222 30.301 27.0202 30.301 27.0182 30.301C26.9812 30.298 26.9582 30.193 26.9612 30.155L27.6242 21.448L27.6552 21.035L28.2962 12.623L28.6862 12.244C28.6892 12.208 28.8132 12.188 28.8482 12.188C28.8502 12.188 28.8522 12.188 28.8542 12.188Z" fill="#8D9399"/>
<path d="M28.8094 12.174C28.8534 12.178 28.8814 12.274 28.8784 12.318L28.2164 21.002L28.1854 21.415L27.5464 29.797L27.2234 30.249C27.2204 30.291 27.1094 30.317 27.0684 30.317C27.0664 30.317 27.0644 30.317 27.0614 30.317C27.0174 30.313 26.9894 30.217 26.9924 30.173L27.6544 21.489L27.6854 21.076L28.3244 12.694L28.6474 12.242C28.6504 12.2 28.7614 12.174 28.8024 12.174C28.8044 12.174 28.8064 12.174 28.8094 12.174Z" fill="#92999E"/>
<path d="M28.7628 12.159C28.8128 12.163 28.8468 12.25 28.8428 12.3L28.1828 20.961L28.1518 21.374L27.5158 29.725L27.2588 30.25C27.2548 30.298 27.1578 30.329 27.1118 30.329C27.1098 30.329 27.1068 30.329 27.1038 30.329C27.0538 30.325 27.0198 30.238 27.0238 30.188L27.6838 21.527L27.7148 21.114L28.3508 12.763L28.6078 12.238C28.6118 12.19 28.7088 12.159 28.7548 12.159C28.7578 12.159 28.7598 12.159 28.7628 12.159Z" fill="#989EA4"/>
<path d="M28.7209 12.144C28.7769 12.149 28.8169 12.226 28.8129 12.283L28.1549 20.921L28.1229 21.335L27.4889 29.656L27.2989 30.255C27.2949 30.309 27.2119 30.346 27.1589 30.346C27.1569 30.346 27.1539 30.346 27.1509 30.346C27.0949 30.341 27.0549 30.264 27.0589 30.207L27.7169 21.569L27.7489 21.155L28.3829 12.834L28.5729 12.235C28.5769 12.181 28.6599 12.144 28.7129 12.144C28.7149 12.144 28.7179 12.144 28.7209 12.144Z" fill="#9EA4AA"/>
<path d="M28.6741 12.129C28.7361 12.134 28.7821 12.203 28.7781 12.266L28.1221 20.88L28.0901 21.294L27.4581 29.585L27.3351 30.257C27.3311 30.316 27.2611 30.36 27.2031 30.36C27.2001 30.36 27.1981 30.36 27.1941 30.36C27.1321 30.355 27.0861 30.286 27.0901 30.223L27.7461 21.609L27.7781 21.195L28.4101 12.904L28.5331 12.232C28.5371 12.173 28.6071 12.129 28.6651 12.129C28.6681 12.129 28.6711 12.129 28.6741 12.129Z" fill="#A3A9AF"/>
<path d="M27.2503 30.375C27.2473 30.375 27.2443 30.375 27.2403 30.375C27.1723 30.369 27.1203 30.31 27.1253 30.24L27.8113 21.235L28.4973 12.23C28.5023 12.165 28.5583 12.115 28.6223 12.115C28.6253 12.115 28.6283 12.115 28.6323 12.115C28.7003 12.121 28.7523 12.18 28.7473 12.25L28.0613 21.255L27.3753 30.26C27.3703 30.325 27.3143 30.375 27.2503 30.375Z" fill="#A9AFB5"/>
<path d="M31.7438 30.335L30.7578 30.165L32.3638 20.801L33.9708 11.437L34.9568 11.606L33.3508 20.971L31.7438 30.335Z" fill="#6B7277"/>
<path d="M34.9149 11.588C34.9209 11.589 34.9009 11.734 34.8999 11.741L33.3239 20.926L33.2499 21.356L31.7219 30.263L31.0019 30.207C31.0009 30.213 30.8159 30.185 30.8099 30.185C30.8089 30.185 30.8019 30.184 30.8019 30.184C30.7959 30.183 30.8159 30.038 30.8169 30.031L32.3929 20.846L32.4669 20.416L33.9949 11.509L34.7159 11.564C34.7159 11.558 34.9079 11.587 34.9149 11.588Z" fill="#71787D"/>
<path d="M34.869 11.569C34.881 11.571 34.868 11.708 34.866 11.721L33.295 20.881L33.221 21.311L31.698 30.19L31.036 30.214C31.034 30.225 30.862 30.205 30.851 30.205C30.85 30.205 30.843 30.204 30.841 30.204C30.829 30.202 30.842 30.065 30.844 30.052L32.415 20.892L32.489 20.462L34.012 11.583L34.674 11.559C34.677 11.546 34.855 11.567 34.869 11.569Z" fill="#767D82"/>
<path d="M34.8284 11.55C34.8464 11.553 34.8404 11.682 34.8374 11.701L33.2704 20.835L33.1964 21.266L31.6784 30.117L31.0764 30.22C31.0734 30.237 30.9144 30.223 30.8984 30.223C30.8964 30.223 30.8894 30.222 30.8874 30.222C30.8694 30.219 30.8754 30.09 30.8784 30.071L32.4454 20.937L32.5194 20.506L34.0374 11.655L34.6394 11.552C34.6434 11.533 34.8074 11.547 34.8284 11.55Z" fill="#7C8388"/>
<path d="M34.7854 11.531C34.8104 11.535 34.8094 11.656 34.8054 11.681L33.2424 20.79L33.1684 21.221L31.6544 30.044L31.1114 30.227C31.1074 30.249 30.9624 30.243 30.9404 30.243C30.9384 30.243 30.9314 30.242 30.9284 30.242C30.9034 30.238 30.9044 30.117 30.9084 30.092L32.4714 20.983L32.5454 20.552L34.0594 11.729L34.6024 11.546C34.6054 11.521 34.7564 11.528 34.7854 11.531Z" fill="#82888E"/>
<path d="M34.7411 11.512C34.7721 11.517 34.7781 11.63 34.7731 11.661L33.2151 20.744L33.1411 21.176L31.6321 29.971L31.1491 30.233C31.1441 30.261 31.0121 30.261 30.9851 30.261C30.9821 30.261 30.9751 30.26 30.9711 30.259C30.9401 30.254 30.9341 30.141 30.9391 30.11L32.4971 21.027L32.5711 20.595L34.0801 11.8L34.5631 11.538C34.5681 11.508 34.7051 11.508 34.7411 11.512Z" fill="#878E93"/>
<path d="M34.6986 11.493C34.7356 11.499 34.7486 11.604 34.7416 11.642L33.1876 20.7L33.1136 21.132L31.6096 29.899L31.1856 30.24C31.1796 30.273 31.0606 30.281 31.0286 30.281C31.0246 30.281 31.0176 30.28 31.0136 30.279C30.9766 30.273 30.9636 30.168 30.9706 30.13L32.5246 21.072L32.5986 20.64L34.1026 11.873L34.5266 11.532C34.5326 11.496 34.6556 11.488 34.6986 11.493Z" fill="#8D9399"/>
<path d="M34.6586 11.474C34.7016 11.481 34.7216 11.578 34.7136 11.622L33.1646 20.654L33.0906 21.087L31.5916 29.826L31.2266 30.246C31.2196 30.285 31.1136 30.299 31.0766 30.299C31.0726 30.299 31.0656 30.298 31.0606 30.297C31.0176 30.29 30.9976 30.193 31.0056 30.149L32.5546 21.117L32.6286 20.684L34.1276 11.945L34.4916 11.525C34.4996 11.483 34.6086 11.468 34.6586 11.474Z" fill="#92999E"/>
<path d="M34.6127 11.455C34.6617 11.464 34.6877 11.552 34.6797 11.602L33.1347 20.608L33.0607 21.041L31.5667 29.752L31.2617 30.252C31.2537 30.296 31.1617 30.318 31.1177 30.318C31.1127 30.318 31.1057 30.317 31.0997 30.316C31.0507 30.307 31.0247 30.219 31.0327 30.169L32.5777 21.163L32.6517 20.73L34.1457 12.019L34.4507 11.519C34.4597 11.47 34.5557 11.449 34.6127 11.455Z" fill="#989EA4"/>
<path d="M34.5713 11.436C34.6263 11.446 34.6593 11.526 34.6493 11.582L33.1083 20.563L33.0343 20.997L31.5443 29.68L31.2983 30.259C31.2893 30.309 31.2103 30.337 31.1613 30.337C31.1553 30.337 31.1493 30.336 31.1423 30.335C31.0873 30.325 31.0543 30.245 31.0643 30.189L32.6053 21.208L32.6793 20.774L34.1693 12.091L34.4143 11.512C34.4253 11.458 34.5073 11.429 34.5713 11.436Z" fill="#9EA4AA"/>
<path d="M34.5266 11.417C34.5876 11.428 34.6276 11.5 34.6166 11.562L33.0806 20.517L33.0066 20.951L31.5216 29.606L31.3356 30.264C31.3256 30.319 31.2596 30.355 31.2056 30.355C31.1996 30.355 31.1926 30.354 31.1856 30.353C31.1246 30.342 31.0846 30.27 31.0956 30.208L32.6316 21.253L32.7056 20.819L34.1906 12.164L34.3766 11.506C34.3876 11.445 34.4556 11.409 34.5266 11.417Z" fill="#A3A9AF"/>
<path d="M31.2496 30.375C31.2426 30.375 31.2356 30.374 31.2286 30.373C31.1616 30.361 31.1156 30.297 31.1266 30.228L32.7326 20.864L34.3396 11.5C34.3516 11.433 34.4056 11.39 34.4846 11.398C34.5516 11.41 34.5976 11.474 34.5866 11.543L32.9806 20.907L31.3746 30.271C31.3616 30.332 31.3096 30.375 31.2496 30.375Z" fill="#A9AFB5"/>
<path d="M8 47C9.65685 47 11 45.6569 11 44C11 42.3431 9.65685 41 8 41C6.34315 41 5 42.3431 5 44C5 45.6569 6.34315 47 8 47Z" fill="url(#paint0_linear)"/>
<path d="M31 47C32.6569 47 34 45.6569 34 44C34 42.3431 32.6569 41 31 41C29.3431 41 28 42.3431 28 44C28 45.6569 29.3431 47 31 47Z" fill="url(#paint1_linear)"/>
<path d="M8 46C9.10457 46 10 45.1046 10 44C10 42.8954 9.10457 42 8 42C6.89543 42 6 42.8954 6 44C6 45.1046 6.89543 46 8 46Z" fill="url(#paint2_linear)"/>
<path d="M31 46C32.1046 46 33 45.1046 33 44C33 42.8954 32.1046 42 31 42C29.8954 42 29 42.8954 29 44C29 45.1046 29.8954 46 31 46Z" fill="url(#paint3_linear)"/>
<path d="M35.5013 24H3.77734V25H35.5013V24Z" fill="#6B7277"/>
<path d="M3.77662 24.034H35.5006C35.5066 24.034 35.5116 24.494 35.5116 24.5C35.5116 24.506 35.5066 24.966 35.5006 24.966H3.77662C3.77062 24.966 3.76562 24.506 3.76562 24.5C3.76562 24.494 3.77062 24.034 3.77662 24.034Z" fill="#71787D"/>
<path d="M3.77691 24.068H35.5009C35.5139 24.068 35.5239 24.487 35.5239 24.5C35.5239 24.513 35.5139 24.932 35.5009 24.932H3.77691C3.76391 24.932 3.75391 24.513 3.75391 24.5C3.75391 24.487 3.76491 24.068 3.77691 24.068Z" fill="#767D82"/>
<path d="M3.77619 24.102H35.5002C35.5192 24.102 35.5342 24.481 35.5342 24.5C35.5342 24.519 35.5192 24.898 35.5002 24.898H3.77619C3.75719 24.898 3.74219 24.519 3.74219 24.5C3.74219 24.481 3.75719 24.102 3.77619 24.102Z" fill="#7C8388"/>
<path d="M3.77547 24.136H35.4995C35.5245 24.136 35.5445 24.474 35.5445 24.5C35.5445 24.526 35.5245 24.864 35.4995 24.864H3.77547C3.75047 24.864 3.73047 24.526 3.73047 24.5C3.73047 24.474 3.75047 24.136 3.77547 24.136Z" fill="#82888E"/>
<path d="M3.77575 24.17H35.4998C35.5317 24.17 35.5567 24.468 35.5567 24.5C35.5567 24.532 35.5317 24.83 35.4998 24.83H3.77575C3.74375 24.83 3.71875 24.532 3.71875 24.5C3.71875 24.468 3.74475 24.17 3.77575 24.17Z" fill="#878E93"/>
<path d="M3.77894 24.205H35.5029C35.5409 24.205 35.5709 24.463 35.5709 24.5C35.5709 24.537 35.5409 24.795 35.5029 24.795H3.77894C3.74094 24.795 3.71094 24.537 3.71094 24.5C3.71094 24.463 3.74194 24.205 3.77894 24.205Z" fill="#8D9399"/>
<path d="M3.77922 24.239H35.5032C35.5472 24.239 35.5832 24.456 35.5832 24.5C35.5832 24.544 35.5482 24.761 35.5032 24.761H3.77922C3.73522 24.761 3.69922 24.544 3.69922 24.5C3.69922 24.456 3.73522 24.239 3.77922 24.239Z" fill="#92999E"/>
<path d="M3.7785 24.273H35.5025C35.5525 24.273 35.5935 24.45 35.5935 24.5C35.5935 24.55 35.5535 24.727 35.5025 24.727H3.7785C3.7285 24.727 3.6875 24.55 3.6875 24.5C3.6875 24.45 3.7285 24.273 3.7785 24.273Z" fill="#989EA4"/>
<path d="M3.77778 24.307H35.5018C35.5588 24.307 35.6038 24.443 35.6038 24.5C35.6038 24.557 35.5578 24.693 35.5018 24.693H3.77778C3.72078 24.693 3.67578 24.557 3.67578 24.5C3.67578 24.443 3.72178 24.307 3.77778 24.307Z" fill="#9EA4AA"/>
<path d="M3.77806 24.341H35.5021C35.5651 24.341 35.6161 24.437 35.6161 24.5C35.6161 24.563 35.5651 24.659 35.5021 24.659H3.77806C3.71506 24.659 3.66406 24.563 3.66406 24.5C3.66406 24.437 3.71506 24.341 3.77806 24.341Z" fill="#A3A9AF"/>
<path d="M35.5013 24.625H3.77734C3.70834 24.625 3.65234 24.569 3.65234 24.5C3.65234 24.431 3.70834 24.375 3.77734 24.375H35.5013C35.5703 24.375 35.6263 24.431 35.6263 24.5C35.6263 24.569 35.5703 24.625 35.5013 24.625Z" fill="#A9AFB5"/>
<path d="M2.52866 19.999L2.47266 19.001L20.2487 18.001L38.0247 17.001L38.0817 17.999L20.3057 18.999L2.52866 19.999Z" fill="#6B7277"/>
<path d="M38.0384 17.046C38.0384 17.052 38.0444 17.238 38.0384 17.239L38.0124 17.969L20.6974 18.943L20.2684 18.967L2.66439 19.957H2.66339C2.65739 19.957 2.51539 19.96 2.51439 19.954C2.51439 19.948 2.50839 19.762 2.51439 19.761L2.54039 19.031L19.8564 18.057L20.2834 18.033L37.8904 17.043C37.8974 17.043 38.0384 17.04 38.0384 17.046Z" fill="#71787D"/>
<path d="M38.0523 17.09C38.0533 17.102 38.0523 17.276 38.0403 17.277L37.9423 17.939L20.6553 18.911L20.2313 18.935L2.64829 19.924C2.64829 19.924 2.64729 19.924 2.64629 19.924C2.63429 19.924 2.50129 19.922 2.50029 19.909C2.49929 19.897 2.50029 19.723 2.51229 19.722L2.61029 19.06L19.8983 18.087L20.3213 18.063L37.9073 17.074C37.9183 17.077 38.0523 17.078 38.0523 17.09Z" fill="#767D82"/>
<path d="M38.0674 17.135C38.0684 17.154 38.0624 17.314 38.0434 17.315L37.8744 17.908L20.6154 18.879L20.1964 18.903L2.63439 19.891C2.63339 19.891 2.63239 19.891 2.63239 19.891C2.61439 19.891 2.48939 19.883 2.48839 19.865C2.48739 19.846 2.49339 19.686 2.51239 19.685L2.68139 19.092L19.9414 18.121L20.3594 18.098L37.9244 17.11C37.9404 17.11 38.0664 17.117 38.0674 17.135Z" fill="#7C8388"/>
<path d="M38.0797 17.18C38.0807 17.205 38.0687 17.353 38.0437 17.354L37.8027 17.878L20.5717 18.847L20.1567 18.87L2.61671 19.858C2.61571 19.858 2.61471 19.858 2.61371 19.858C2.58971 19.858 2.47371 19.845 2.47271 19.82C2.47171 19.795 2.48371 19.647 2.50871 19.646L2.74971 19.122L19.9817 18.153L20.3947 18.13L37.9387 17.143C37.9597 17.144 38.0787 17.155 38.0797 17.18Z" fill="#82888E"/>
<path d="M38.0961 17.225C38.0981 17.256 38.0801 17.392 38.0481 17.393L37.7361 17.848L20.5331 18.816L20.1231 18.839L2.60309 19.824C2.60209 19.824 2.60009 19.824 2.60009 19.824C2.57009 19.824 2.46309 19.805 2.46109 19.775C2.45909 19.744 2.47709 19.608 2.50909 19.607L2.82109 19.152L20.0251 18.184L20.4331 18.161L37.9561 17.175C37.9831 17.177 38.0941 17.194 38.0961 17.225Z" fill="#878E93"/>
<path d="M38.1094 17.269C38.1114 17.306 38.0874 17.429 38.0504 17.431L37.6664 17.817L20.4914 18.784L20.0864 18.807L2.58643 19.791C2.58543 19.791 2.58343 19.791 2.58243 19.791C2.54643 19.791 2.44743 19.767 2.44543 19.73C2.44343 19.693 2.46743 19.57 2.50443 19.568L2.88843 19.182L20.0644 18.216L20.4674 18.193L37.9694 17.208C38.0034 17.211 38.1074 17.232 38.1094 17.269Z" fill="#8D9399"/>
<path d="M38.1208 17.314C38.1228 17.358 38.0938 17.468 38.0498 17.47L37.5948 17.787L20.4478 18.752L20.0478 18.775L2.56878 19.758C2.56778 19.758 2.56578 19.758 2.56378 19.758C2.52178 19.758 2.43178 19.728 2.42978 19.686C2.42778 19.642 2.45678 19.532 2.50078 19.53L2.95578 19.213L20.1038 18.248L20.5018 18.226L37.9828 17.243C38.0218 17.245 38.1178 17.271 38.1208 17.314Z" fill="#92999E"/>
<path d="M38.1371 17.359C38.1401 17.409 38.1051 17.506 38.0541 17.509L37.5271 17.757L20.4081 18.72L20.0131 18.742L2.55515 19.725C2.55415 19.725 2.55115 19.725 2.55015 19.725C2.50215 19.725 2.42115 19.69 2.41815 19.641C2.41515 19.591 2.45015 19.494 2.50115 19.491L3.02815 19.243L20.1481 18.28L20.5421 18.258L38.0011 17.275C38.0451 17.278 38.1342 17.309 38.1371 17.359Z" fill="#989EA4"/>
<path d="M38.1504 17.404C38.1534 17.46 38.1124 17.545 38.0554 17.548L37.4574 17.727L20.3664 18.688L19.9754 18.71L2.53841 19.691C2.53641 19.691 2.53441 19.691 2.53241 19.691C2.47841 19.691 2.40541 19.65 2.40241 19.596C2.40041 19.54 2.44141 19.456 2.49841 19.452L3.09641 19.273L20.1874 18.312L20.5764 18.29L38.0154 17.309C38.0654 17.312 38.1474 17.348 38.1504 17.404Z" fill="#9EA4AA"/>
<path d="M38.1649 17.448C38.1689 17.51 38.1219 17.582 38.0589 17.586L37.3889 17.697L20.3259 18.657L19.9399 18.679L2.52386 19.659C2.52186 19.659 2.51986 19.659 2.51786 19.659C2.45786 19.659 2.39386 19.613 2.39086 19.552C2.38686 19.49 2.43386 19.418 2.49686 19.414L3.16686 19.303L20.2299 18.343L20.6139 18.321L38.0319 17.341C38.0869 17.345 38.1609 17.386 38.1649 17.448Z" fill="#A3A9AF"/>
<path d="M2.50021 19.625C2.43421 19.625 2.37921 19.573 2.37521 19.507C2.37121 19.439 2.42421 19.379 2.49321 19.375L20.2692 18.375L38.0452 17.375C38.1072 17.379 38.1732 17.425 38.1772 17.493C38.1812 17.561 38.1282 17.621 38.0592 17.625L20.2832 18.625L2.50721 19.625C2.50521 19.625 2.50221 19.625 2.50021 19.625Z" fill="#A9AFB5"/>
<path d="M8.61919 40H4.49219L6.97319 44.314C7.27219 44.805 7.82119 45.128 8.34119 44.941C8.86119 44.754 9.10619 44.343 9.04619 43.673L8.61919 40Z" fill="url(#paint4_linear)"/>
<path d="M33.9998 30.5H4.99978C4.76978 30.5 4.56778 30.342 4.51378 30.117L1.01378 15.617C0.94978 15.348 1.11478 15.079 1.38278 15.013C1.65378 14.954 1.92078 15.114 1.98678 15.382L5.39378 29.5H33.6398L41.5258 5.84203C41.5678 5.71603 41.6588 5.61303 41.7768 5.55303L45.7768 3.55303C46.0248 3.43003 46.3238 3.53003 46.4478 3.77703C46.5708 4.02403 46.4708 4.32403 46.2238 4.44803L42.4098 6.35503L34.4748 30.159C34.4058 30.362 34.2148 30.5 33.9998 30.5Z" fill="#6B7277"/>
<path d="M34.0012 30.466H5.00117C4.78617 30.466 4.59917 30.319 4.54817 30.109L1.04817 15.609C0.988173 15.359 1.14117 15.105 1.39217 15.047C1.64317 14.989 1.89317 15.141 1.95417 15.391L5.36817 29.534H33.6652L41.5592 5.85303C41.5982 5.73603 41.6832 5.63903 41.7932 5.58403L45.7932 3.58403C46.0242 3.46903 46.3032 3.56203 46.4182 3.79203C46.5332 4.02203 46.4402 4.30203 46.2102 4.41703L42.3822 6.33003L34.4432 30.147C34.3802 30.338 34.2012 30.466 34.0012 30.466Z" fill="#71787D"/>
<path d="M33.9986 30.432H4.99861C4.79961 30.432 4.62561 30.295 4.57861 30.101L1.07861 15.601C1.02261 15.369 1.16461 15.134 1.39761 15.08C1.63061 15.026 1.86261 15.167 1.91861 15.399L5.33861 29.568H33.6876L41.5886 5.863C41.6246 5.754 41.7036 5.665 41.8056 5.613L45.8056 3.613C46.0196 3.506 46.2776 3.593 46.3846 3.806C46.4906 4.019 46.4046 4.278 46.1916 4.385L42.3516 6.305L34.4076 30.135C34.3496 30.313 34.1846 30.432 33.9986 30.432Z" fill="#767D82"/>
<path d="M33.9996 30.398H4.99962C4.81662 30.398 4.65662 30.272 4.61262 30.093L1.11262 15.593C1.06162 15.379 1.19162 15.163 1.40662 15.113C1.62162 15.063 1.83462 15.193 1.88662 15.407L5.31262 29.602H33.7126L41.6216 5.87405C41.6546 5.77405 41.7266 5.69105 41.8216 5.64405L45.8216 3.64405C46.0186 3.54505 46.2566 3.62605 46.3546 3.82205C46.4526 4.01805 46.3736 4.25705 46.1766 4.35505L42.3246 6.28105L34.3766 30.125C34.3226 30.288 34.1706 30.398 33.9996 30.398Z" fill="#7C8388"/>
<path d="M34.0009 30.3641H5.00091C4.83291 30.3641 4.68691 30.2491 4.64691 30.0861L1.14691 15.5861C1.09991 15.3911 1.21991 15.1931 1.41491 15.1471C1.61191 15.1011 1.80591 15.2201 1.85391 15.4151L5.28691 29.6371H33.7389L41.6559 5.88605C41.6859 5.79405 41.7519 5.71905 41.8379 5.67605L45.8379 3.67605C46.0189 3.58605 46.2359 3.65905 46.3259 3.83905C46.4159 4.01905 46.3429 4.23705 46.1629 4.32705L42.2979 6.26005L34.3449 30.1171C34.2959 30.2641 34.1569 30.3641 34.0009 30.3641Z" fill="#82888E"/>
<path d="M34.0013 30.33H5.00131C4.84931 30.33 4.71631 30.226 4.68131 30.078L1.18131 15.578C1.13831 15.4 1.24631 15.221 1.42431 15.18C1.60231 15.138 1.77931 15.246 1.82231 15.423L5.26031 29.67H33.7633L41.6883 5.89501C41.7153 5.81201 41.7753 5.74401 41.8533 5.70401L45.8533 3.70401C46.0173 3.62201 46.2133 3.68901 46.2953 3.85101C46.3763 4.01401 46.3103 4.21101 46.1483 4.29301L42.2713 6.23401L34.3143 30.104C34.2693 30.239 34.1433 30.33 34.0013 30.33Z" fill="#878E93"/>
<path d="M33.9984 30.295H4.99836C4.86236 30.295 4.74336 30.202 4.71136 30.069L1.21136 15.569C1.17336 15.41 1.27036 15.25 1.42936 15.213C1.58936 15.175 1.74736 15.272 1.78536 15.431L5.23136 29.705H33.7864L41.7184 5.90703C41.7424 5.83203 41.7964 5.77103 41.8664 5.73603L45.8664 3.73603C46.0134 3.66203 46.1894 3.72303 46.2624 3.86803C46.3354 4.01403 46.2764 4.19103 46.1304 4.26403L42.2404 6.21003L34.2784 30.093C34.2384 30.214 34.1254 30.295 33.9984 30.295Z" fill="#8D9399"/>
<path d="M33.9997 30.261H4.9997C4.8797 30.261 4.7737 30.179 4.7457 30.061L1.2457 15.561C1.2117 15.42 1.2977 15.28 1.4387 15.246C1.5807 15.212 1.7197 15.298 1.7537 15.439L5.2057 29.739H33.8117L41.7517 5.91801C41.7727 5.85201 41.8207 5.79801 41.8827 5.76701L45.8827 3.76701C46.0127 3.70101 46.1687 3.75501 46.2327 3.88401C46.2977 4.01301 46.2447 4.17001 46.1157 4.23401L42.2127 6.18601L34.2467 30.083C34.2117 30.19 34.1117 30.261 33.9997 30.261Z" fill="#92999E"/>
<path d="M34.001 30.227H5.00105C4.89605 30.227 4.80405 30.155 4.78005 30.053L1.28005 15.553C1.25005 15.431 1.32505 15.309 1.44705 15.279C1.57105 15.249 1.69205 15.324 1.72105 15.446L5.17905 29.772H33.836L41.784 5.92804C41.803 5.87004 41.844 5.82404 41.898 5.79704L45.898 3.79704C46.011 3.73904 46.147 3.78704 46.202 3.89804C46.258 4.01004 46.213 4.14704 46.101 4.20204L42.186 6.16004L34.215 30.07C34.186 30.165 34.099 30.227 34.001 30.227Z" fill="#989EA4"/>
<path d="M33.9982 30.193H4.99816C4.90916 30.193 4.83116 30.132 4.81016 30.045L1.31016 15.545C1.28516 15.441 1.34816 15.338 1.45216 15.312C1.55716 15.286 1.66016 15.35 1.68516 15.454L5.15016 29.806H33.8592L41.8152 5.93801C41.8312 5.88901 41.8662 5.84901 41.9122 5.82601L45.9122 3.82601C46.0082 3.77601 46.1232 3.81801 46.1712 3.91201C46.2192 4.00701 46.1802 4.12301 46.0852 4.17101L42.1572 6.13601L34.1822 30.06C34.1552 30.14 34.0812 30.193 33.9982 30.193Z" fill="#9EA4AA"/>
<path d="M33.9984 30.159H4.99844C4.92544 30.159 4.86044 30.109 4.84444 30.037L1.34444 15.537C1.32344 15.451 1.37644 15.367 1.46144 15.345C1.54844 15.323 1.63244 15.376 1.65344 15.462L5.12444 29.84H33.8844L41.8474 5.95002C41.8604 5.90902 41.8884 5.87702 41.9274 5.85802L45.9274 3.85802C46.0064 3.81702 46.1014 3.85102 46.1404 3.92902C46.1804 4.00702 46.1474 4.10302 46.0694 4.14202L42.1284 6.11302L34.1484 30.05C34.1274 30.116 34.0664 30.159 33.9984 30.159Z" fill="#A3A9AF"/>
<path d="M33.9998 30.125H4.99984C4.94184 30.125 4.89184 30.086 4.87884 30.029L1.37884 15.529C1.36184 15.462 1.40284 15.394 1.47084 15.379C1.53884 15.359 1.60584 15.403 1.62084 15.471L5.09884 29.875H33.9098L41.8818 5.961C41.8918 5.929 41.9138 5.903 41.9448 5.889L45.9448 3.889C46.0078 3.856 46.0818 3.884 46.1118 3.945C46.1428 4.007 46.1178 4.082 46.0558 4.112L42.1028 6.09L34.1188 30.04C34.1018 30.091 34.0538 30.125 33.9998 30.125Z" fill="#A9AFB5"/>
<path d="M1.4991 16C1.2521 16 1.0361 15.815 1.0041 15.563C0.969098 15.29 1.1621 15.039 1.4371 15.003L40.4371 10.003C40.7071 9.96501 40.9611 10.161 40.9971 10.436C41.0321 10.709 40.8391 10.96 40.5641 10.996L1.5641 15.996C1.5421 15.999 1.5211 16 1.4991 16Z" fill="#6B7277"/>
<path d="M1.50006 15.966C1.27006 15.966 1.06906 15.794 1.03906 15.559C1.00606 15.304 1.18606 15.07 1.44206 15.038L40.4421 10.038C40.6931 10.002 40.9311 10.185 40.9631 10.441C40.9961 10.696 40.8161 10.93 40.5601 10.962L1.56006 15.962C1.54006 15.965 1.52006 15.966 1.50006 15.966Z" fill="#71787D"/>
<path d="M1.49789 15.932C1.28389 15.932 1.09789 15.773 1.06989 15.555C1.03989 15.319 1.20689 15.102 1.44389 15.072L40.4439 10.072C40.6769 10.038 40.8969 10.209 40.9269 10.446C40.9569 10.682 40.7899 10.899 40.5529 10.929L1.55289 15.929C1.53489 15.931 1.51689 15.932 1.49789 15.932Z" fill="#767D82"/>
<path d="M1.49885 15.898C1.30185 15.898 1.13085 15.751 1.10485 15.551C1.07685 15.333 1.23085 15.134 1.44885 15.106L40.4488 10.106C40.6628 10.074 40.8658 10.232 40.8938 10.45C40.9218 10.668 40.7678 10.867 40.5498 10.895L1.54985 15.895C1.53285 15.897 1.51585 15.898 1.49885 15.898Z" fill="#7C8388"/>
<path d="M1.49981 15.864C1.31981 15.864 1.16281 15.73 1.13981 15.546C1.11381 15.347 1.25481 15.165 1.45481 15.139L40.4548 10.139C40.6508 10.108 40.8358 10.254 40.8618 10.454C40.8878 10.653 40.7468 10.835 40.5468 10.861L1.54681 15.861C1.53181 15.863 1.51581 15.864 1.49981 15.864Z" fill="#82888E"/>
<path d="M1.50056 15.83C1.33756 15.83 1.19556 15.708 1.17456 15.542C1.15156 15.362 1.27856 15.196 1.45956 15.173L40.4596 10.173C40.6376 10.144 40.8056 10.277 40.8286 10.458C40.8516 10.638 40.7246 10.804 40.5436 10.827L1.54357 15.827C1.52957 15.829 1.51456 15.83 1.50056 15.83Z" fill="#878E93"/>
<path d="M1.4986 15.795C1.3526 15.795 1.2246 15.686 1.2056 15.537C1.1846 15.375 1.2996 15.227 1.4616 15.206L40.4616 10.206C40.6206 10.179 40.7716 10.3 40.7926 10.462C40.8136 10.624 40.6986 10.772 40.5366 10.793L1.5366 15.793C1.5236 15.795 1.5106 15.795 1.4986 15.795Z" fill="#8D9399"/>
<path d="M1.49936 15.761C1.36936 15.761 1.25736 15.665 1.24036 15.533C1.22236 15.39 1.32336 15.259 1.46636 15.241L40.4664 10.241C40.6074 10.216 40.7404 10.324 40.7584 10.467C40.7764 10.61 40.6754 10.741 40.5324 10.759L1.53236 15.759C1.52136 15.761 1.51036 15.761 1.49936 15.761Z" fill="#92999E"/>
<path d="M1.50032 15.727C1.38732 15.727 1.28932 15.643 1.27532 15.528C1.25932 15.404 1.34732 15.29 1.47232 15.274L40.4723 10.274C40.5953 10.251 40.7103 10.346 40.7263 10.471C40.7423 10.595 40.6543 10.709 40.5293 10.725L1.52932 15.725C1.51932 15.727 1.50932 15.727 1.50032 15.727Z" fill="#989EA4"/>
<path d="M1.50126 15.693C1.40526 15.693 1.32226 15.622 1.31026 15.524C1.29626 15.418 1.37226 15.322 1.47726 15.308L40.4773 10.308C40.5813 10.287 40.6793 10.37 40.6933 10.475C40.7073 10.581 40.6313 10.677 40.5263 10.691L1.52626 15.691C1.51726 15.693 1.50926 15.693 1.50126 15.693Z" fill="#9EA4AA"/>
<path d="M1.49911 15.659C1.42011 15.659 1.35111 15.6 1.34111 15.52C1.33011 15.433 1.39211 15.353 1.47911 15.342L40.4791 10.342C40.5651 10.323 40.6461 10.393 40.6571 10.48C40.6681 10.567 40.6061 10.647 40.5191 10.658L1.51911 15.658C1.51311 15.659 1.50511 15.659 1.49911 15.659Z" fill="#A3A9AF"/>
<path d="M1.50007 15.625C1.43707 15.625 1.38407 15.579 1.37607 15.516C1.36707 15.448 1.41607 15.385 1.48407 15.376L40.4841 10.376C40.5511 10.358 40.6151 10.416 40.6241 10.484C40.6331 10.552 40.5841 10.615 40.5161 10.624L1.51607 15.624C1.51107 15.625 1.50507 15.625 1.50007 15.625Z" fill="#A9AFB5"/>
<path d="M33.363 40H3.5C3.224 40 3 39.776 3 39.5C3 39.224 3.224 39 3.5 39H33.363C34.019 39 34.599 38.656 34.915 38.082C35.23 37.507 35.208 36.834 34.855 36.28L31.025 30.268C30.877 30.036 30.945 29.726 31.178 29.578C31.408 29.432 31.719 29.498 31.868 29.731L35.698 35.743C36.25 36.608 36.284 37.663 35.791 38.562C35.298 39.463 34.391 40 33.363 40Z" fill="#6B7277"/>
<path d="M33.3642 39.966H3.50116C3.24316 39.966 3.03516 39.758 3.03516 39.5C3.03516 39.242 3.24316 39.034 3.50116 39.034H33.3642C34.0332 39.034 34.6242 38.684 34.9462 38.098C35.2672 37.512 35.2452 36.826 34.8852 36.262L31.0552 30.25C30.9172 30.033 30.9802 29.745 31.1982 29.607C31.4132 29.471 31.7022 29.532 31.8412 29.75L35.6712 35.762C36.2162 36.617 36.2502 37.658 35.7632 38.547C35.2752 39.435 34.3792 39.966 33.3642 39.966Z" fill="#71787D"/>
<path d="M33.3614 39.932H3.49841C3.25941 39.932 3.06641 39.739 3.06641 39.5C3.06641 39.261 3.25941 39.068 3.49841 39.068H33.3614C34.0424 39.068 34.6454 38.711 34.9734 38.115C35.3014 37.518 35.2774 36.819 34.9114 36.244L31.0814 30.232C30.9534 30.031 31.0124 29.764 31.2134 29.636C31.4124 29.51 31.6814 29.567 31.8094 29.768L35.6394 35.78C36.1774 36.624 36.2114 37.653 35.7294 38.53C35.2484 39.408 34.3634 39.932 33.3614 39.932Z" fill="#767D82"/>
<path d="M33.3626 39.898H3.49956C3.27956 39.898 3.10156 39.72 3.10156 39.5C3.10156 39.28 3.27956 39.102 3.49956 39.102H33.3626C34.0566 39.102 34.6706 38.739 35.0046 38.131C35.3386 37.523 35.3146 36.811 34.9416 36.225L31.1116 30.213C30.9936 30.028 31.0476 29.781 31.2336 29.664C31.4176 29.548 31.6646 29.6 31.7826 29.786L35.6126 35.798C36.1436 36.632 36.1766 37.647 35.7016 38.513C35.2256 39.38 34.3526 39.898 33.3626 39.898Z" fill="#7C8388"/>
<path d="M33.3637 39.864H3.50072C3.29972 39.864 3.13672 39.701 3.13672 39.5C3.13672 39.299 3.29972 39.136 3.50072 39.136H33.3637C34.0707 39.136 34.6947 38.766 35.0347 38.147C35.3747 37.528 35.3507 36.803 34.9707 36.207L31.1407 30.195C31.0327 30.026 31.0827 29.8 31.2517 29.693C31.4197 29.587 31.6457 29.635 31.7537 29.804L35.5837 35.816C36.1077 36.639 36.1407 37.641 35.6717 38.496C35.2037 39.353 34.3407 39.864 33.3637 39.864Z" fill="#82888E"/>
<path d="M33.3649 39.83H3.50187C3.31987 39.83 3.17188 39.683 3.17188 39.5C3.17188 39.317 3.31887 39.17 3.50187 39.17H33.3649C34.0839 39.17 34.7199 38.793 35.0659 38.163C35.4119 37.533 35.3869 36.795 35.0009 36.188L31.1709 30.176C31.0729 30.023 31.1179 29.818 31.2719 29.721C31.4249 29.624 31.6289 29.668 31.7269 29.822L35.5569 35.834C36.0749 36.646 36.1069 37.636 35.6439 38.48C35.1809 39.325 34.3289 39.83 33.3649 39.83Z" fill="#878E93"/>
<path d="M33.3611 39.795H3.49813C3.33513 39.795 3.20312 39.663 3.20312 39.5C3.20312 39.337 3.33513 39.205 3.49813 39.205H33.3611C34.0931 39.205 34.7401 38.822 35.0921 38.18C35.4441 37.539 35.4191 36.788 35.0261 36.171L31.1961 30.159C31.1081 30.021 31.1491 29.838 31.2861 29.751C31.4231 29.664 31.6061 29.704 31.6941 29.841L35.5241 35.853C36.0351 36.655 36.0671 37.631 35.6101 38.464C35.1531 39.298 34.3121 39.795 33.3611 39.795Z" fill="#8D9399"/>
<path d="M33.3623 39.761H3.49928C3.35428 39.761 3.23828 39.644 3.23828 39.5C3.23828 39.356 3.35528 39.239 3.49928 39.239H33.3623C34.1063 39.239 34.7653 38.849 35.1233 38.197C35.4813 37.545 35.4563 36.781 35.0553 36.153L31.2253 30.141C31.1473 30.019 31.1833 29.857 31.3053 29.78C31.4263 29.703 31.5893 29.738 31.6663 29.86L35.4963 35.872C36.0003 36.663 36.0323 37.627 35.5813 38.448C35.1303 39.27 34.3013 39.761 33.3623 39.761Z" fill="#92999E"/>
<path d="M33.3634 39.727H3.50044C3.37444 39.727 3.27344 39.626 3.27344 39.5C3.27344 39.374 3.37444 39.273 3.50044 39.273H33.3634C34.1204 39.273 34.7904 38.877 35.1544 38.213C35.5184 37.55 35.4924 36.772 35.0854 36.134L31.2554 30.122C31.1884 30.016 31.2194 29.875 31.3254 29.808C31.4314 29.741 31.5724 29.772 31.6394 29.878L35.4694 35.89C35.9664 36.671 35.9974 37.621 35.5534 38.432C35.1084 39.243 34.2894 39.727 33.3634 39.727Z" fill="#989EA4"/>
<path d="M33.3646 39.693H3.50159C3.39459 39.693 3.30859 39.607 3.30859 39.5C3.30859 39.393 3.39459 39.307 3.50159 39.307H33.3646C34.1346 39.307 34.8146 38.904 35.1856 38.229C35.5556 37.555 35.5296 36.764 35.1156 36.116L31.2856 30.104C31.2286 30.014 31.2546 29.894 31.3446 29.837C31.4346 29.78 31.5546 29.806 31.6116 29.896L35.4416 35.908C35.9316 36.678 35.9626 37.615 35.5236 38.415C35.0856 39.215 34.2776 39.693 33.3646 39.693Z" fill="#9EA4AA"/>
<path d="M33.3618 39.659H3.49884C3.41084 39.659 3.33984 39.588 3.33984 39.5C3.33984 39.412 3.41084 39.341 3.49884 39.341H33.3618C34.1438 39.341 34.8358 38.932 35.2128 38.245C35.5888 37.56 35.5628 36.756 35.1418 36.097L31.3118 30.085C31.2648 30.011 31.2868 29.912 31.3608 29.865C31.4358 29.818 31.5338 29.84 31.5808 29.914L35.4108 35.926C35.8938 36.686 35.9248 37.61 35.4918 38.398C35.0588 39.188 34.2628 39.659 33.3618 39.659Z" fill="#A3A9AF"/>
<path d="M33.363 39.625H3.5C3.431 39.625 3.375 39.569 3.375 39.5C3.375 39.431 3.431 39.375 3.5 39.375H33.363C34.158 39.375 34.861 38.959 35.244 38.262C35.626 37.566 35.599 36.749 35.172 36.079L31.342 30.067C31.305 30.008 31.322 29.931 31.38 29.894C31.44 29.857 31.517 29.874 31.553 29.932L35.383 35.944C35.86 36.693 35.89 37.604 35.463 38.382C35.036 39.16 34.251 39.625 33.363 39.625Z" fill="#A9AFB5"/>
<path d="M7.99872 44.612C8.33672 44.612 8.61072 44.338 8.61072 44C8.61072 43.662 8.33672 43.388 7.99872 43.388C7.66072 43.388 7.38672 43.662 7.38672 44C7.38672 44.338 7.66072 44.612 7.99872 44.612Z" fill="url(#paint5_linear)"/>
<path d="M31.6192 40H27.4922L29.9732 44.314C30.2722 44.805 30.8212 45.128 31.3412 44.941C31.8612 44.754 32.1062 44.343 32.0462 43.673L31.6192 40Z" fill="url(#paint6_linear)"/>
<path d="M30.9987 44.612C31.3367 44.612 31.6107 44.338 31.6107 44C31.6107 43.662 31.3367 43.388 30.9987 43.388C30.6607 43.388 30.3867 43.662 30.3867 44C30.3867 44.338 30.6607 44.612 30.9987 44.612Z" fill="url(#paint7_linear)"/>
<path d="M7.033 17.125L0.422 17.978C0.198 18.006 0 17.832 0 17.606V15.361C0 15.173 0.14 15.014 0.327 14.99L8 14V16.025C8 16.583 7.586 17.053 7.033 17.125Z" fill="url(#paint8_linear)"/>
<path d="M47.3389 4.38503L43.4259 6.33103C43.3299 6.37903 43.2129 6.34003 43.1649 6.24303L42.5049 4.91503C42.4569 4.81903 42.4959 4.70203 42.5929 4.65403L46.5059 2.70803C46.9689 2.47803 47.5309 2.66603 47.7619 3.13003C47.9909 3.59303 47.8019 4.15503 47.3389 4.38503Z" fill="url(#paint9_linear)"/>
<defs>
<linearGradient id="paint0_linear" x1="9.657" y1="48.065" x2="7.392" y2="42.508" gradientUnits="userSpaceOnUse">
<stop stop-color="#393938"/>
<stop offset="0.999" stop-color="#70706F"/>
</linearGradient>
<linearGradient id="paint1_linear" x1="32.657" y1="48.065" x2="30.392" y2="42.508" gradientUnits="userSpaceOnUse">
<stop stop-color="#393938"/>
<stop offset="0.999" stop-color="#70706F"/>
</linearGradient>
<linearGradient id="paint2_linear" x1="7.175" y1="43.347" x2="10.312" y2="45.829" gradientUnits="userSpaceOnUse">
<stop offset="0.001" stop-color="#171714"/>
<stop offset="1" stop-color="#393938"/>
</linearGradient>
<linearGradient id="paint3_linear" x1="30.175" y1="43.347" x2="33.312" y2="45.829" gradientUnits="userSpaceOnUse">
<stop offset="0.001" stop-color="#171714"/>
<stop offset="1" stop-color="#393938"/>
</linearGradient>
<linearGradient id="paint4_linear" x1="6.77319" y1="40.678" x2="6.77319" y2="43.333" gradientUnits="userSpaceOnUse">
<stop stop-color="#A7ADB7"/>
<stop offset="1" stop-color="#87909B"/>
</linearGradient>
<linearGradient id="paint5_linear" x1="7.38672" y1="44" x2="8.61072" y2="44" gradientUnits="userSpaceOnUse">
<stop stop-color="#393938"/>
<stop offset="0.999" stop-color="#171714"/>
</linearGradient>
<linearGradient id="paint6_linear" x1="29.7742" y1="40.678" x2="29.7742" y2="43.333" gradientUnits="userSpaceOnUse">
<stop stop-color="#A7ADB7"/>
<stop offset="1" stop-color="#87909B"/>
</linearGradient>
<linearGradient id="paint7_linear" x1="30.3867" y1="44" x2="31.6107" y2="44" gradientUnits="userSpaceOnUse">
<stop stop-color="#393938"/>
<stop offset="0.999" stop-color="#171714"/>
</linearGradient>
<linearGradient id="paint8_linear" x1="3.876" y1="14.591" x2="4.103" y2="16.824" gradientUnits="userSpaceOnUse">
<stop stop-color="#00B1F2"/>
<stop offset="0.589" stop-color="#00349C"/>
</linearGradient>
<linearGradient id="paint9_linear" x1="44.7782" y1="3.4248" x2="45.5555" y2="4.85311" gradientUnits="userSpaceOnUse">
<stop stop-color="#00B1F2"/>
<stop offset="0.805" stop-color="#00349C"/>
</linearGradient>
</defs>
</svg>
