<svg width="96" height="96" viewBox="0 0 96 96" fill="none" xmlns="http://www.w3.org/2000/svg">
<path d="M88 48C88 70.088 70.088 88 48 88C25.912 88 8 70.088 8 48C8 25.912 25.912 8 48 8C70.088 8 88 25.912 88 48Z" fill="url(#paint0_linear)"/>
<path opacity="0.05" d="M54 20H52C49.794 20 48 21.794 48 24C48 21.794 46.206 20 44 20H42C39.794 20 38 21.794 38 24V26H36C33.794 26 32 27.794 32 30V66C32 68.206 33.794 70 36 70H38V72C38 74.206 39.794 76 42 76H44C46.206 76 48 74.206 48 72V70V72C48 74.206 49.794 76 52 76H54C56.206 76 58 74.206 58 72V69.218C60.232 68.64 62.112 67.738 63.604 66.53C66.52 64.166 68 60.704 68 56.242C68 53.56 67.268 51.234 65.828 49.328C65.198 48.486 64.46 47.764 63.62 47.166C64.238 46.602 64.786 45.964 65.262 45.256C66.478 43.428 67.092 41.312 67.092 38.962C67.092 34.724 65.566 31.434 62.554 29.188C61.302 28.254 59.802 27.534 58 27.008V24C58 21.794 56.206 20 54 20ZM44 36H50.398C52.754 36 53.754 36.494 54.14 36.788C54.658 37.182 54.922 37.964 54.922 39.11C54.922 40.164 54.922 41.928 50.692 42H44V36ZM44 52H52C54.644 52.038 56 53.648 56 56.782C56 59.964 51.864 60 51.688 60H44V52Z" fill="black"/>
<path opacity="0.07" d="M54 21H52C50.346 21 49 22.346 49 24V27H47V24C47 22.346 45.654 21 44 21H42C40.346 21 39 22.346 39 24V27H36C34.346 27 33 28.346 33 30V66C33 67.654 34.346 69 36 69H39V72C39 73.654 40.346 75 42 75H44C45.654 75 47 73.654 47 72V69H49V72C49 73.654 50.346 75 52 75H54C55.654 75 57 73.654 57 72V68.428C59.426 67.9 61.432 67.002 62.974 65.752C65.646 63.586 67 60.386 67 56.242C67 53.782 66.338 51.66 65.03 49.93C64.186 48.802 63.126 47.914 61.87 47.272C62.888 46.582 63.746 45.722 64.432 44.698C65.536 43.04 66.094 41.11 66.094 38.962C66.094 35.056 64.702 32.038 61.958 29.988C60.644 29.006 59.016 28.278 57.002 27.77V24C57 22.346 55.654 21 54 21ZM43 35H50.398C52.418 35 53.882 35.334 54.746 35.992C55.536 36.594 55.922 37.614 55.922 39.11C55.922 40.88 55.33 42.922 50.71 43H43V35ZM43 51H52C55.22 51.046 57 53.1 57 56.782C57 60.952 51.904 61 51.688 61H43V51Z" fill="black"/>
<path d="M42 22H44C45.104 22 46 22.896 46 24V30C46 31.104 45.104 32 44 32H42C40.896 32 40 31.104 40 30V24C40 22.896 40.896 22 42 22ZM52 22H54C55.104 22 56 22.896 56 24V30C56 31.104 55.104 32 54 32H52C50.896 32 50 31.104 50 30V24C50 22.896 50.896 22 52 22ZM42 64H44C45.104 64 46 64.896 46 66V72C46 73.104 45.104 74 44 74H42C40.896 74 40 73.104 40 72V66C40 64.896 40.896 64 42 64ZM52 64H54C55.104 64 56 64.896 56 66V72C56 73.104 55.104 74 54 74H52C50.896 74 50 73.104 50 72V66C50 64.896 50.896 64 52 64ZM34 66V30C34 28.896 34.896 28 36 28H50.398C55.218 28 58.866 28.93 61.358 30.79C63.85 32.65 65.092 35.376 65.092 38.962C65.092 40.922 64.592 42.65 63.6 44.142C62.6 45.634 61.21 46.728 59.428 47.424C61.46 47.94 63.06 48.97 64.232 50.534C65.406 52.086 66 53.984 66 56.242C66 60.086 64.782 63 62.344 64.976C59.906 66.952 56.438 67.96 51.93 68H36C34.896 68 34 67.104 34 66ZM42 44H50.726C54.852 43.93 56.922 42.352 56.922 39.11C56.922 37.298 56.398 35.992 55.352 35.196C54.306 34.4 52.656 34 50.398 34H42V44ZM42 50V62H51.688C53.61 62 58 61.062 58 56.782C58 52.502 55.766 50.054 52 50H42Z" fill="white"/>
<defs>
<linearGradient id="paint0_linear" x1="27.998" y1="13.354" x2="68.002" y2="82.646" gradientUnits="userSpaceOnUse">
<stop stop-color="#FFDA1C"/>
<stop offset="1" stop-color="#FEB705"/>
</linearGradient>
</defs>
</svg>
