<svg xmlns="http://www.w3.org/2000/svg" width="128" height="128"><defs><style>.cls-1 { fill: #1dacd6; fill-rule: evenodd; }</style></defs><path id="Animated_flags" d="M98.2 51l18.3-23a5.4 5.4 0 0 0 .6-5.7 5.2 5.2 0 0 0-4.5-3H69v-8.8a5.3 5.3 0 0 0-1.5-3.8 5.2 5.2 0 0 0-3.7-1.5H15.2a5.3 5.3 0 0 0-5.2 5.3v106a5.2 5.2 0 1 0 10.5 0V68.7h38v8.8A5.3 5.3 0 0 0 64 83h48.6a5.2 5.2 0 0 0 4.7-3 5.4 5.4 0 0 0-.5-5.7zm-77.7 7.2V15.8h38v42.4h-38zm48.5 14V30h32.6l-14 17.8a5.4 5.4 0 0 0 0 6.6l14 18H69z" data-name="Animated flags" class="cls-1"/></svg>