<svg width="97" height="96" viewBox="0 0 97 96" fill="none" xmlns="http://www.w3.org/2000/svg">
<path d="M35.4922 71.988C44.881 71.988 52.4922 60.7951 52.4922 46.988C52.4922 33.1809 44.881 21.988 35.4922 21.988C26.1033 21.988 18.4922 33.1809 18.4922 46.988C18.4922 60.7951 26.1033 71.988 35.4922 71.988Z" fill="url(#paint0_linear)"/>
<path d="M35.4922 71.988C44.881 71.988 52.4922 60.7951 52.4922 46.988C52.4922 33.1809 44.881 21.988 35.4922 21.988C26.1033 21.988 18.4922 33.1809 18.4922 46.988C18.4922 60.7951 26.1033 71.988 35.4922 71.988Z" fill="url(#paint1_radial)"/>
<path d="M23.4922 71.988C32.881 71.988 40.4922 60.7951 40.4922 46.988C40.4922 33.1809 32.881 21.988 23.4922 21.988C14.1033 21.988 6.49219 33.1809 6.49219 46.988C6.49219 60.7951 14.1033 71.988 23.4922 71.988Z" fill="url(#paint2_linear)"/>
<path d="M20.0422 17.988C27.1922 17.988 30.4922 23.988 30.4922 23.988H8.49219C8.49219 23.988 12.8922 17.988 20.0422 17.988Z" fill="#33C481"/>
<path d="M30.4922 23.988C30.4922 23.988 27.7422 29.988 20.0422 29.988C12.3422 29.988 8.49219 23.988 8.49219 23.988H30.4922Z" fill="#21A366"/>
<path d="M82.4922 33.988C82.4922 51.988 56.4922 85.988 20.4922 85.988C18.3322 85.988 15.0322 85.988 12.4322 84.748C10.8722 83.988 9.57219 82.808 8.95219 80.908C8.65219 80.068 8.49219 79.108 8.49219 77.988C8.49219 77.888 8.49219 77.788 8.51219 77.688C8.99219 72.848 20.8122 65.828 36.4922 57.988C47.5322 52.468 60.4922 37.988 60.4922 29.988C60.4922 29.228 60.5522 28.528 60.6522 27.888C61.6122 21.628 66.8722 19.988 70.4922 19.988C70.7722 19.988 71.0922 20.008 71.4122 20.028C73.2122 20.148 75.4922 20.688 77.5322 22.148C80.2522 24.068 82.4922 27.628 82.4922 33.988Z" fill="url(#paint3_linear)"/>
<path opacity="0.05" d="M78.4927 22.908C78.1727 22.628 77.8527 22.388 77.5327 22.148C76.3527 22.488 74.3527 23.508 73.2727 26.648C72.9527 27.528 72.1727 28.048 71.3527 28.048C70.8727 28.048 70.4127 27.868 70.0127 27.528C69.0927 26.688 67.8527 26.068 66.2127 26.068C64.7127 26.068 62.8927 26.568 60.6527 27.888C60.5927 28.268 60.5527 28.688 60.5327 29.128C60.4927 29.408 60.4927 29.688 60.4927 29.988C60.4927 30.088 60.4927 30.208 60.4727 30.308L61.6727 29.608C63.4127 28.588 64.9327 28.068 66.2127 28.068C67.1727 28.068 67.9727 28.368 68.6727 29.008C69.4127 29.668 70.3527 30.048 71.3527 30.048C73.0527 30.048 74.5927 28.948 75.1527 27.308C75.9127 25.108 77.1727 24.328 78.0727 24.068L79.2927 23.728C79.0327 23.428 78.7727 23.168 78.4927 22.908ZM62.5127 23.448C62.0527 24.008 61.6527 24.648 61.3727 25.388C61.6927 24.648 62.0927 24.008 62.5527 23.448C62.5327 23.448 62.5127 23.448 62.5127 23.448Z" fill="black"/>
<path opacity="0.07" d="M77.5312 22.148C76.3512 22.488 74.3512 23.508 73.2712 26.648C72.9512 27.528 72.1712 28.048 71.3512 28.048C70.8713 28.048 70.4112 27.868 70.0112 27.528C69.0912 26.688 67.8513 26.068 66.2113 26.068C64.7113 26.068 62.8912 26.568 60.6512 27.888C60.5912 28.268 60.5512 28.688 60.5312 29.128L61.1512 28.748C63.0512 27.628 64.7513 27.068 66.2113 27.068C67.4313 27.068 68.4512 27.448 69.3512 28.268C69.8912 28.768 70.6112 29.048 71.3512 29.048C72.6312 29.048 73.7713 28.208 74.2113 26.988C75.1112 24.368 76.6712 23.428 77.8112 23.108L78.4912 22.908C78.1712 22.628 77.8512 22.388 77.5312 22.148ZM62.5112 23.448C62.0512 24.008 61.6513 24.648 61.3713 25.388C61.6913 24.648 62.0912 24.008 62.5512 23.448C62.5312 23.448 62.5112 23.448 62.5112 23.448Z" fill="black"/>
<path d="M68.4923 9.98799V6.46599C68.4923 5.30599 67.7223 4.39399 66.5883 4.14999C66.5363 4.13999 66.4863 4.12999 66.4363 4.11999C61.9403 3.20799 58.7123 7.69199 61.5743 11.496C65.8923 17.23 64.1763 20.086 62.4923 23.454C62.4923 23.454 62.5383 23.45 62.5583 23.448C61.6503 24.578 60.9423 26.002 60.6523 27.888C65.3483 25.126 68.2583 25.924 70.0163 27.52C71.0983 28.502 72.7843 28.032 73.2643 26.652C74.3583 23.506 76.3563 22.484 77.5323 22.148C69.5323 16.148 68.4923 11.988 68.4923 9.98799Z" fill="#21A366"/>
<path d="M12.4322 79.868V84.748C10.1922 83.668 8.49219 81.688 8.49219 77.988C8.49219 77.888 8.49219 77.788 8.51219 77.688C10.5122 79.228 12.4322 79.868 12.4322 79.868Z" fill="#E38101"/>
<path d="M86.4845 53.9C79.9225 47.338 67.4025 49.222 58.5165 58.108C49.6305 66.994 47.7485 79.514 54.3085 86.076C60.8705 92.638 73.3905 90.754 82.2765 81.868C91.1625 72.982 93.0445 60.462 86.4845 53.9Z" fill="url(#paint4_linear)"/>
<path d="M57.4053 72.008C56.6313 72.008 55.9073 71.556 55.5813 70.828C55.1753 69.95 55.4553 68.88 56.2893 68.328C57.2093 67.712 58.4493 67.964 59.0633 68.882C59.1633 69.03 59.2493 69.208 59.3033 69.376C59.6533 70.424 59.0873 71.556 58.0393 71.906C57.8273 71.974 57.6133 72.008 57.4053 72.008ZM74.3873 83.008C74.1393 83.008 73.8873 82.962 73.6453 82.864C72.6193 82.452 72.1193 81.29 72.5293 80.264C72.5813 80.136 72.6553 79.996 72.7333 79.882C73.3433 78.964 74.5833 78.712 75.5073 79.328C76.3913 79.918 76.6533 81.09 76.1293 81.996C75.7693 82.63 75.0953 83.006 74.3873 83.008ZM65.2273 86.006H65.2073C64.1013 86.006 63.2073 85.11 63.2073 84.006C63.2073 82.902 64.1053 82.098 65.2073 82.006C65.2313 82.004 65.2553 82.006 65.2793 82.006C66.3853 82.006 67.2893 82.902 67.2893 84.006C67.2893 85.11 66.4053 86.006 65.2993 86.006H65.2893C65.2713 86.006 65.2493 86.006 65.2273 86.006ZM75.5273 82.726H75.5493H75.5273ZM57.2773 81.448C56.5033 81.448 55.7793 80.996 55.4533 80.268C55.0473 79.39 55.3273 78.32 56.1613 77.768C57.0813 77.152 58.3213 77.404 58.9353 78.322C59.0353 78.47 59.1213 78.648 59.1753 78.816C59.5253 79.864 58.9593 80.996 57.9113 81.346C57.6993 81.416 57.4873 81.448 57.2773 81.448ZM81.2693 76.312C81.0213 76.312 80.7693 76.266 80.5273 76.168C79.5013 75.756 79.0013 74.594 79.4113 73.568C79.4633 73.44 79.5373 73.3 79.6153 73.186C80.2253 72.268 81.4653 72.016 82.3893 72.632C83.2733 73.222 83.5353 74.394 83.0113 75.3C82.6493 75.934 81.9753 76.31 81.2693 76.312ZM84.3873 67.242C83.2813 67.242 82.3873 66.346 82.3873 65.242C82.3873 64.138 83.2813 63.232 84.3873 63.232C85.4933 63.232 86.3873 64.118 86.3873 65.222V65.242C86.3873 66.346 85.4933 67.242 84.3873 67.242ZM62.6113 63.912C62.1733 63.912 61.7333 63.768 61.3633 63.474C60.5013 62.784 60.3613 61.526 61.0513 60.664C61.1793 60.502 61.3453 60.35 61.5173 60.236C62.4393 59.62 63.6793 59.872 64.2913 60.79C64.8333 61.606 64.7013 62.676 64.0213 63.334C63.6373 63.714 63.1273 63.912 62.6113 63.912ZM80.2313 59.048C79.9313 59.048 79.6253 58.98 79.3393 58.838C78.3513 58.344 77.9433 57.138 78.4373 56.15C78.9293 55.16 80.1213 54.76 81.1113 55.25L81.1293 55.258C82.1173 55.752 82.5173 56.954 82.0233 57.942C81.6713 58.644 80.9653 59.048 80.2313 59.048ZM70.7833 58.792C69.9453 58.792 69.1593 58.264 68.8813 57.426C68.5313 56.378 69.0893 55.248 70.1373 54.898L70.1553 54.892C71.2113 54.538 72.3353 55.11 72.6853 56.156C73.0353 57.204 72.4693 58.336 71.4213 58.686C71.2093 58.76 70.9953 58.792 70.7833 58.792Z" fill="#343434"/>
<path d="M65.9549 76.01C65.3669 76.01 64.8529 75.89 64.6729 75.71C64.0589 75.096 64.2109 71.062 67.8409 67.432C69.9469 65.326 72.6929 63.966 74.8369 63.966C75.4249 63.966 75.9389 64.086 76.1189 64.266C76.7329 64.88 76.5809 68.914 72.9509 72.544C70.8469 74.65 68.1009 76.01 65.9549 76.01Z" fill="url(#paint5_linear)"/>
<defs>
<linearGradient id="paint0_linear" x1="35.4922" y1="19.66" x2="35.4922" y2="79.718" gradientUnits="userSpaceOnUse">
<stop stop-color="#F09701"/>
<stop offset="1" stop-color="#E36001"/>
</linearGradient>
<radialGradient id="paint1_radial" cx="0" cy="0" r="1" gradientUnits="userSpaceOnUse" gradientTransform="translate(28.7689 46.2823) rotate(-90.0424) scale(32.9744 16.515)">
<stop offset="0.129" stop-color="#E36001"/>
<stop offset="0.868" stop-color="#E36001" stop-opacity="0"/>
</radialGradient>
<linearGradient id="paint2_linear" x1="23.4922" y1="20.164" x2="23.4922" y2="84" gradientUnits="userSpaceOnUse">
<stop stop-color="#F09701"/>
<stop offset="1" stop-color="#E36001"/>
</linearGradient>
<linearGradient id="paint3_linear" x1="45.4922" y1="52.488" x2="45.4922" y2="152.09" gradientUnits="userSpaceOnUse">
<stop stop-color="#FED100"/>
<stop offset="1" stop-color="#E38101"/>
</linearGradient>
<linearGradient id="paint4_linear" x1="89.9845" y1="50.4" x2="46.0405" y2="94.344" gradientUnits="userSpaceOnUse">
<stop stop-color="#21AD64"/>
<stop offset="1" stop-color="#088242"/>
</linearGradient>
<linearGradient id="paint5_linear" x1="89.9849" y1="50.4" x2="46.0409" y2="94.344" gradientUnits="userSpaceOnUse">
<stop stop-color="#FAF8E5"/>
<stop offset="1" stop-color="#FAEEAC"/>
</linearGradient>
</defs>
</svg>
