<svg width="97" height="96" viewBox="0 0 97 96" fill="none" xmlns="http://www.w3.org/2000/svg">
<path d="M88.3965 48C88.3965 70.09 70.4865 88 48.3965 88C26.3065 88 8.39648 70.09 8.39648 48C8.39648 25.91 26.3065 8 48.3965 8C70.4865 8 88.3965 25.91 88.3965 48Z" fill="url(#paint0_linear)"/>
<path opacity="0.05" d="M43.8452 37.298C43.8452 35.524 45.3772 34.624 48.3972 34.624C52.5572 34.624 55.9972 35.946 57.6792 36.734C58.7212 37.224 62.3972 37.908 62.3972 33.77V29.58C62.3972 26.512 60.5452 25.46 59.7492 25.15C57.8152 24.398 55.3972 23.924 52.3972 23.71V21C52.3972 19.346 51.0512 18 49.3972 18H47.3972C45.7432 18 44.3972 19.346 44.3972 21V23.946C37.9652 25.122 31.7012 29.308 31.7012 37.996C31.7012 55.384 52.9492 53.886 52.9492 57.814C52.9492 58.524 52.9492 60.412 48.3972 60.412C43.1092 60.412 38.4672 58.248 37.1712 57.586C36.1492 57.06 32.3972 56.68 32.3972 60.524V65.29C32.3972 67.002 33.4212 68.542 35.0072 69.216C37.6892 70.356 41.1492 71.264 44.3972 71.702V75C44.3972 76.654 45.7432 78 47.3972 78H49.3972C51.0512 78 52.3972 76.654 52.3972 75V71.684C61.7252 70.132 65.0932 63.162 65.0932 57.386C65.0932 40.404 43.8452 43.1 43.8452 37.298Z" fill="black"/>
<path opacity="0.07" d="M42.8452 37.298C42.8452 34.192 46.1072 33.624 48.3972 33.624C52.3512 33.624 55.8832 34.788 58.1032 35.83C59.0592 36.278 61.3972 36.318 61.3972 33.77V29.58C61.3972 27.344 60.2072 26.4 59.3872 26.082C57.4732 25.338 54.9052 24.832 51.3972 24.66V21C51.3972 19.896 50.5012 19 49.3972 19H47.3972C46.2932 19 45.3972 19.896 45.3972 21V24.814C39.0652 25.706 32.7012 29.558 32.7012 37.994C32.7012 54.148 53.9492 51.92 53.9492 57.812C53.9492 59.402 53.1612 61.41 48.3972 61.41C43.2532 61.41 38.6352 59.456 36.7172 58.474C35.7792 57.992 33.3972 58.12 33.3972 60.522V65.29C33.3972 66.604 34.1852 67.78 35.3992 68.296C38.2472 69.506 41.9972 70.444 45.3972 70.804V75C45.3972 76.104 46.2932 77 47.3972 77H49.3972C50.5012 77 51.3972 76.104 51.3972 75V70.8C60.7232 69.634 64.0932 63.028 64.0932 57.384C64.0932 41.698 42.8452 44.45 42.8452 37.298Z" fill="black"/>
<path d="M63.0932 57.384C63.0932 42.992 41.8452 45.802 41.8452 37.298C41.8452 32.858 46.8352 32.624 48.3972 32.624C52.1472 32.624 55.7672 33.63 58.5272 34.924C59.3972 35.334 60.3972 34.73 60.3972 33.77V29.58C60.3972 28.176 59.8692 27.342 59.0252 27.014C57.1332 26.278 54.4152 25.742 50.3972 25.608V21C50.3972 20.448 49.9492 20 49.3972 20H47.3972C46.8452 20 46.3972 20.448 46.3972 21V25.684C40.1652 26.294 33.7012 29.81 33.7012 37.996C33.7012 52.916 54.9492 49.958 54.9492 57.814C54.9492 60.284 53.3712 62.412 48.3972 62.412C43.3972 62.412 38.8032 60.668 36.2612 59.366C35.4052 58.928 34.3972 59.562 34.3972 60.522V65.29C34.3972 66.204 34.9472 67.018 35.7892 67.374C38.8012 68.654 42.8432 69.622 46.3972 69.906V75C46.3972 75.552 46.8452 76 47.3972 76H49.3972C49.9492 76 50.3972 75.552 50.3972 75V69.918C59.7232 69.138 63.0932 62.896 63.0932 57.384Z" fill="white"/>
<defs>
<linearGradient id="paint0_linear" x1="20.1125" y1="19.716" x2="76.6805" y2="76.284" gradientUnits="userSpaceOnUse">
<stop stop-color="#21AD64"/>
<stop offset="1" stop-color="#088242"/>
</linearGradient>
</defs>
</svg>
