<svg width="97" height="96" viewBox="0 0 97 96" fill="none" xmlns="http://www.w3.org/2000/svg">
<path d="M48.5859 8C26.4939 8 8.58594 25.908 8.58594 48C8.58594 70.092 26.4939 88 48.5859 88C70.6779 88 88.5859 70.092 88.5859 48C88.5859 25.908 70.6779 8 48.5859 8Z" fill="url(#paint0_radial)"/>
<path d="M42.5859 20C39.2719 20 36.5859 22.686 36.5859 26C36.5859 29.314 39.2719 32 42.5859 32C45.8999 32 48.5859 29.314 48.5859 26C48.5859 22.686 45.8999 20 42.5859 20Z" fill="url(#paint1_radial)"/>
<path d="M26.5859 44C24.3759 44 22.5859 45.79 22.5859 48C22.5859 50.21 24.3759 52 26.5859 52C28.7959 52 30.5859 50.21 30.5859 48C30.5859 45.79 28.7959 44 26.5859 44Z" fill="url(#paint2_radial)"/>
<path d="M73.5859 40C71.9299 40 70.5859 41.344 70.5859 43C70.5859 44.656 71.9299 46 73.5859 46C75.2419 46 76.5859 44.656 76.5859 43C76.5859 41.344 75.2419 40 73.5859 40Z" fill="url(#paint3_radial)"/>
<defs>
<radialGradient id="paint0_radial" cx="0" cy="0" r="1" gradientUnits="userSpaceOnUse" gradientTransform="translate(81.2059 86.476) scale(87.534)">
<stop stop-color="#6D75D6"/>
<stop offset="0.123" stop-color="#8189DE"/>
<stop offset="0.384" stop-color="#A7ADEC"/>
<stop offset="0.625" stop-color="#C3C7F6"/>
<stop offset="0.838" stop-color="#D3D6FD"/>
<stop offset="1" stop-color="#D9DCFF"/>
</radialGradient>
<radialGradient id="paint1_radial" cx="0" cy="0" r="1" gradientUnits="userSpaceOnUse" gradientTransform="translate(44.7171 29.7512) scale(10.3681)">
<stop offset="0.313" stop-color="#6063E0" stop-opacity="0"/>
<stop offset="1" stop-color="#6063E0"/>
</radialGradient>
<radialGradient id="paint2_radial" cx="0" cy="0" r="1" gradientUnits="userSpaceOnUse" gradientTransform="translate(28.0059 50.5) scale(6.912)">
<stop offset="0.313" stop-color="#6063E0" stop-opacity="0"/>
<stop offset="1" stop-color="#6063E0"/>
</radialGradient>
<radialGradient id="paint3_radial" cx="0" cy="0" r="1" gradientUnits="userSpaceOnUse" gradientTransform="translate(74.6519 44.876) scale(5.184)">
<stop offset="0.313" stop-color="#6063E0" stop-opacity="0"/>
<stop offset="1" stop-color="#6063E0"/>
</radialGradient>
</defs>
</svg>
