<svg xmlns="http://www.w3.org/2000/svg" width="128" height="128"><defs><style>.cls-1 { fill: #22a991; fill-rule: evenodd; }</style></defs><path id="Rectangular_AJAX_loaders" d="M74 88a14 14 0 1 1-14 14 14 14 0 0 1 14-14zm29 1a13 13 0 1 1-13 13 13 13 0 0 1 13-13zm0-28a12 12 0 1 1-12 12 12 12 0 0 1 12-12zm0-26a10 10 0 1 1-10 10 10 10 0 0 1 10-10zm0-28a9 9 0 1 1-9 9 9 9 0 0 1 9-9zM74 8a8 8 0 1 1-8 8 8 8 0 0 1 8-8zm-29 2a6 6 0 1 1-6 6 6 6 0 0 1 6-6zm-28 0a6 6 0 1 1-6 6 6 6 0 0 1 6-6zm0 29a6 6 0 1 1-6 6 6 6 0 0 1 6-6zm0 28a6 6 0 1 1-6 6 6 6 0 0 1 6-6zm0 29a6 6 0 1 1-6 6 6 6 0 0 1 6-6zm28 0a6 6 0 1 1-6 6 6 6 0 0 1 6-6z" data-name="Rectangular AJAX loaders" class="cls-1"/></svg>