<svg xmlns="http://www.w3.org/2000/svg" width="128" height="128"><defs><style>.cls-1 { fill: #6b8e23; fill-rule: evenodd; }</style></defs><path id="Religion_signs_animated" d="M99.5 114H36a4 4 0 0 1 0-8h59.5a7.2 7.2 0 0 0 7-7.4v-86a7.2 7.2 0 0 0-7-7.4H36.2A11.5 11.5 0 0 0 25 17l-.2 93c0 7.8 5 11.7 11.3 11.7h63.7a3.8 3.8 0 0 0 0-7.6zM32.2 17a4 4 0 0 1 4-4.2h59v85.5h-59a11.2 11.2 0 0 0-4 .7V17zM72 35h-4.6v-6a3.7 3.7 0 1 0-7.3 0v6h-4.3a3.8 3.8 0 0 0 0 7.7H60V63a3.7 3.7 0 1 0 7.4 0V42.7H72a3.8 3.8 0 0 0 0-7.6z" data-name="Religion signs animated" class="cls-1"/></svg>