<svg width="96" height="96" viewBox="0 0 96 96" fill="none" xmlns="http://www.w3.org/2000/svg">
<path d="M54 12H66V53.604C66 54.928 64.928 56 63.604 56H56.396C55.072 56 54 54.928 54 53.604V12Z" fill="url(#paint0_linear)"/>
<path d="M38 66C31.4 66 26 60.6 26 54V48C26 41.4 31.4 36 38 36H50V28H38C27 28 18 37 18 48V54C18 65 27 74 38 74H68C70.21 74 72 72.21 72 70C72 67.79 70.21 66 68 66H38Z" fill="url(#paint1_linear)"/>
<path d="M19.88 88H76.12C77.158 88 78 87.158 78 86.12V84C78 81.8 76.2 80 74 80H22C19.8 80 18 81.8 18 84V86.12C18 87.158 18.842 88 19.88 88Z" fill="url(#paint2_linear)"/>
<path d="M50 40H40C35.6 40 32 36.4 32 32C32 27.6 35.6 24 40 24H50V40Z" fill="url(#paint3_linear)"/>
<path d="M66 52H54C51.8 52 50 50.2 50 48V17.89C50 16.846 50.846 16 51.89 16H68.11C69.154 16 70 16.846 70 17.89V48C70 50.2 68.2 52 66 52Z" fill="url(#paint4_linear)"/>
<path d="M54 8H66C67.104 8 68 8.896 68 10C68 11.104 67.104 12 66 12H54C52.896 12 52 11.104 52 10C52 8.896 52.896 8 54 8Z" fill="url(#paint5_linear)"/>
<path d="M42 36C44.2091 36 46 34.2091 46 32C46 29.7909 44.2091 28 42 28C39.7909 28 38 29.7909 38 32C38 34.2091 39.7909 36 42 36Z" fill="url(#paint6_radial)"/>
<path opacity="0.05" d="M42 28C44.21 28 46 29.79 46 32C46 34.21 44.21 36 42 36C39.79 36 38 34.21 38 32C38 29.79 39.79 28 42 28ZM42 27C39.244 27 37 29.242 37 32C37 34.758 39.244 37 42 37C44.756 37 47 34.758 47 32C47 29.242 44.756 27 42 27Z" fill="black"/>
<path d="M43.2 63.8C42.4 62.6 41.2 62 39.8 62H36C34.6 62 33.4 62.6 32.6 63.8L22 80H54L43.2 63.8Z" fill="url(#paint7_linear)"/>
<path d="M38 74C40.2091 74 42 72.2091 42 70C42 67.7909 40.2091 66 38 66C35.7909 66 34 67.7909 34 70C34 72.2091 35.7909 74 38 74Z" fill="url(#paint8_radial)"/>
<path opacity="0.05" d="M38 66C40.2 66 42 67.8 42 70C42 72.2 40.2 74 38 74C35.8 74 34 72.2 34 70C34 67.8 35.8 66 38 66ZM38 65C35.244 65 33 67.242 33 70C33 72.758 35.244 75 38 75C40.756 75 43 72.758 43 70C43 67.242 40.756 65 38 65Z" fill="black"/>
<defs>
<linearGradient id="paint0_linear" x1="46.452" y1="30.158" x2="72.364" y2="36.982" gradientUnits="userSpaceOnUse">
<stop stop-color="#6D7479"/>
<stop offset="1" stop-color="#323538"/>
</linearGradient>
<linearGradient id="paint1_linear" x1="14.162" y1="53.382" x2="54.216" y2="50.91" gradientUnits="userSpaceOnUse">
<stop stop-color="#889097"/>
<stop offset="1" stop-color="#64717C"/>
</linearGradient>
<linearGradient id="paint2_linear" x1="45.17" y1="74.836" x2="56.644" y2="115.714" gradientUnits="userSpaceOnUse">
<stop stop-color="#6D7479"/>
<stop offset="1" stop-color="#323538"/>
</linearGradient>
<linearGradient id="paint3_linear" x1="37.734" y1="26.166" x2="55.734" y2="45.056" gradientUnits="userSpaceOnUse">
<stop stop-color="#889097"/>
<stop offset="1" stop-color="#64717C"/>
</linearGradient>
<linearGradient id="paint4_linear" x1="49.43" y1="23.782" x2="77.518" y2="49.364" gradientUnits="userSpaceOnUse">
<stop stop-color="#00B3EE"/>
<stop offset="1" stop-color="#0082D8"/>
</linearGradient>
<linearGradient id="paint5_linear" x1="55.746" y1="6.006" x2="70.778" y2="20.118" gradientUnits="userSpaceOnUse">
<stop stop-color="#00B3EE"/>
<stop offset="1" stop-color="#0082D8"/>
</linearGradient>
<radialGradient id="paint6_radial" cx="0" cy="0" r="1" gradientUnits="userSpaceOnUse" gradientTransform="translate(40.132 30.626) scale(6.646)">
<stop offset="0.439" stop-color="#53585C"/>
<stop offset="1" stop-color="#323538"/>
</radialGradient>
<linearGradient id="paint7_linear" x1="25.186" y1="64.774" x2="44.044" y2="82.708" gradientUnits="userSpaceOnUse">
<stop stop-color="#00B3EE"/>
<stop offset="1" stop-color="#0082D8"/>
</linearGradient>
<radialGradient id="paint8_radial" cx="0" cy="0" r="1" gradientUnits="userSpaceOnUse" gradientTransform="translate(35.088 68.208) scale(7.168)">
<stop stop-color="#5A6064"/>
<stop offset="1" stop-color="#323538"/>
</radialGradient>
</defs>
</svg>
