<svg width="97" height="96" viewBox="0 0 97 96" fill="none" xmlns="http://www.w3.org/2000/svg">
<path d="M48.3965 88C70.4865 88 88.3965 70.09 88.3965 48C88.3965 25.91 70.4865 8 48.3965 8C26.3065 8 8.39648 25.91 8.39648 48C8.39648 70.09 26.3065 88 48.3965 88Z" fill="url(#paint0_linear)"/>
<path d="M32.3965 52C36.8148 52 40.3965 48.4183 40.3965 44C40.3965 39.5817 36.8148 36 32.3965 36C27.9782 36 24.3965 39.5817 24.3965 44C24.3965 48.4183 27.9782 52 32.3965 52Z" fill="white"/>
<path d="M64.3965 52C68.8148 52 72.3965 48.4183 72.3965 44C72.3965 39.5817 68.8148 36 64.3965 36C59.9782 36 56.3965 39.5817 56.3965 44C56.3965 48.4183 59.9782 52 64.3965 52Z" fill="white"/>
<path d="M32.3965 48C34.6056 48 36.3965 46.2091 36.3965 44C36.3965 41.7909 34.6056 40 32.3965 40C30.1873 40 28.3965 41.7909 28.3965 44C28.3965 46.2091 30.1873 48 32.3965 48Z" fill="#343434"/>
<path d="M64.3965 48C66.6056 48 68.3965 46.2091 68.3965 44C68.3965 41.7909 66.6056 40 64.3965 40C62.1873 40 60.3965 41.7909 60.3965 44C60.3965 46.2091 62.1873 48 64.3965 48Z" fill="#343434"/>
<path d="M63.8975 63.368C64.6275 64.196 64.5475 65.46 63.7175 66.19C59.4675 69.932 54.0255 71.992 48.3955 71.992C42.7655 71.992 37.3235 69.932 33.0755 66.19C32.2455 65.46 32.1655 64.196 32.8955 63.368C33.6235 62.538 34.8875 62.458 35.7175 63.188C39.2355 66.286 43.7375 67.992 48.3955 67.992C53.0535 67.992 57.5555 66.286 61.0755 63.188C61.4555 62.852 61.9255 62.688 62.3955 62.688C62.9495 62.688 63.5015 62.918 63.8975 63.368Z" fill="#343434"/>
<defs>
<linearGradient id="paint0_linear" x1="20.4585" y1="20.062" x2="76.6165" y2="76.22" gradientUnits="userSpaceOnUse">
<stop stop-color="#FEDE00"/>
<stop offset="0.519" stop-color="#FECC00"/>
<stop offset="1" stop-color="#FFB700"/>
</linearGradient>
</defs>
</svg>
